<svg xmlns="http://www.w3.org/2000/svg" viewBox="0 0 1520 382"><path fill="#d1d1d2" stroke="#d1d1d2" stroke-width=".5" d="M64.5 56q1 .5 0 1-1-.5 0-1ZM230.5 56q1 .5 0 1-1-.5 0-1ZM634.5 56q1 .5 0 1-1-.5 0-1ZM800.5 56q1 .5 0 1-1-.5 0-1ZM987.5 56q1 .5 0 1-1-.5 0-1ZM1012.5 56q.8.3.5 1.5-.5 1-1 0-.2-1.2.5-1.5ZM1178.5 56q1 .5 0 1-1-.5 0-1ZM1288.5 57q.8.3.5 1.5-.5 1-1 0-.2-1.2.5-1.5ZM231.5 58q1 .5 0 1-1-.5 0-1ZM340.5 58q1 .5 0 1-1-.5 0-1ZM506.5 58q1 .5 0 1-1-.5 0-1ZM633.5 58q1 .5 0 1-1-.5 0-1ZM799.5 58q1 .5 0 1-1-.5 0-1ZM820.5 58q1 .5 0 1-1-.5 0-1ZM986.5 58q1 .5 0 1-1-.5 0-1ZM1454.5 58q1 .5 0 1-1-.5 0-1ZM65.5 59q1 .5 0 1-1-.5 0-1ZM1013.5 59q1 .5 0 1-1-.5 0-1ZM1179.5 59q1 .5 0 1-1-.5 0-1ZM339.5 60q1 .5 0 1-1-.5 0-1ZM505.5 60q1 .5 0 1-1-.5 0-1ZM632.5 60q1 .5 0 1-1-.5 0-1ZM819.5 60q1 .5 0 1-1-.5 0-1ZM1287.5 60q1 .5 0 1-1-.5 0-1ZM1453.5 60q1 .5 0 1-1-.5 0-1ZM66.5 61q1 .5 0 1-1-.5 0-1ZM232.5 61q1 .5 0 1-1-.5 0-1ZM798.5 61q1 .5 0 1-1-.5 0-1ZM985.5 61q1 .5 0 1-1-.5 0-1ZM1014.5 61q.8.3.5 1.5-.5 1-1 0-.2-1.2.5-1.5ZM1180.5 61q1 .5 0 1-1-.5 0-1ZM504.5 62q.8.3.5 1.5-.5 1-1 0-.2-1.2.5-1.5ZM1286.5 62q1 .5 0 1-1-.5 0-1ZM233.5 63q1 .5 0 1-1-.5 0-1ZM338.5 63q1 .5 0 1-1-.5 0-1ZM631.5 63q1 .5 0 1-1-.5 0-1ZM797.5 63q1 .5 0 1-1-.5 0-1ZM818.5 63q1 .5 0 1-1-.5 0-1ZM984.5 63q1 .5 0 1-1-.5 0-1ZM1181.5 63q.8.3.5 1.5-.5 1-1 0-.2-1.2.5-1.5ZM1452.5 63q1 .5 0 1-1-.5 0-1ZM67.5 64q1 .5 0 1-1-.5 0-1ZM1015.5 64q1 .5 0 1-1-.5 0-1ZM337.5 65q1 .5 0 1-1-.5 0-1ZM503.5 65q1 .5 0 1-1-.5 0-1ZM630.5 65q1 .5 0 1-1-.5 0-1ZM817.5 65q1 .5 0 1-1-.5 0-1ZM983.5 65q.8.3.5 1.5-.5 1-1 0-.2-1.2.5-1.5ZM1285.5 65q1 .5 0 1-1-.5 0-1ZM1451.5 65q1 .5 0 1-1-.5 0-1ZM68.5 66q1 .5 0 1-1-.5 0-1ZM234.5 66q1 .5 0 1-1-.5 0-1ZM796.5 66q1 .5 0 1-1-.5 0-1ZM1016.5 66q.8.3.5 1.5-.5 1-1 0-.2-1.2.5-1.5ZM1182.5 66q1 .5 0 1-1-.5 0-1ZM336.5 67q.8.3.5 1.5-.5 1-1 0-.2-1.2.5-1.5ZM502.5 67q.8.3.5 1.5-.5 1-1 0-.2-1.2.5-1.5ZM816.5 67q.8.3.5 1.5-.5 1-1 0-.2-1.2.5-1.5ZM1284.5 67q1 .5 0 1-1-.5 0-1ZM235.5 68q1 .5 0 1-1-.5 0-1ZM629.5 68q1 .5 0 1-1-.5 0-1ZM795.5 68q1 .5 0 1-1-.5 0-1ZM982.5 68q1 .5 0 1-1-.5 0-1ZM1183.5 68q.8.3.5 1.5-.5 1-1 0-.2-1.2.5-1.5ZM1450.5 68q1 .5 0 1-1-.5 0-1ZM69.5 69q1 .5 0 1-1-.5 0-1ZM1017.5 69q1 .5 0 1-1-.5 0-1ZM236.5 70q.8.3.5 1.5-.5 1-1 0-.2-1.2.5-1.5ZM335.5 70q1 .5 0 1-1-.5 0-1ZM501.5 70q1 .5 0 1-1-.5 0-1ZM628.5 70q1 .5 0 1-1-.5 0-1ZM815.5 70q1 .5 0 1-1-.5 0-1ZM981.5 70q.8.3.5 1.5-.5 1-1 0-.2-1.2.5-1.5ZM1283.5 70q1 .5 0 1-1-.5 0-1ZM1449.5 70q1 .5 0 1-1-.5 0-1ZM70.5 71q1 .5 0 1-1-.5 0-1ZM794.5 71q1 .5 0 1-1-.5 0-1ZM1018.5 71q1 .5 0 1-1-.5 0-1ZM1184.5 71q1 .5 0 1-1-.5 0-1ZM334.5 72q.8.3.5 1.5-.5 1-1 0-.2-1.2.5-1.5ZM500.5 72q.8.3.5 1.5-.5 1-1 0-.2-1.2.5-1.5ZM814.5 72q.8.3.5 1.5-.5 1-1 0-.2-1.2.5-1.5ZM1282.5 72q1 .5 0 1-1-.5 0-1ZM71.5 73q.8.3.5 1.5-.5 1-1 0-.2-1.2.5-1.5ZM237.5 73q1 .5 0 1-1-.5 0-1ZM627.5 73q1 .5 0 1-1-.5 0-1ZM793.5 73q1 .5 0 1-1-.5 0-1ZM980.5 73q1 .5 0 1-1-.5 0-1ZM1185.5 73q1 .5 0 1-1-.5 0-1ZM1448.5 73q1 .5 0 1-1-.5 0-1ZM1019.5 74q1 .5 0 1-1-.5 0-1ZM238.5 75q.8.3.5 1.5-.5 1-1 0-.2-1.2.5-1.5ZM333.5 75q1 .5 0 1-1-.5 0-1ZM499.5 75q1 .5 0 1-1-.5 0-1ZM626.5 75q1 .5 0 1-1-.5 0-1ZM813.5 75q1 .5 0 1-1-.5 0-1ZM979.5 75q.8.3.5 1.5-.5 1-1 0-.2-1.2.5-1.5ZM1281.5 75q1 .5 0 1-1-.5 0-1ZM1447.5 75q1 .5 0 1-1-.5 0-1ZM72.5 76q1 .5 0 1-1-.5 0-1ZM792.5 76q1 .5 0 1-1-.5 0-1ZM1020.5 76q1 .5 0 1-1-.5 0-1ZM1186.5 76q1 .5 0 1-1-.5 0-1ZM332.5 77q.8.3.5 1.5-.5 1-1 0-.2-1.2.5-1.5ZM498.5 77q1 .5 0 1-1-.5 0-1ZM812.5 77q.8.3.5 1.5-.5 1-1 0-.2-1.2.5-1.5ZM1280.5 77q1 .5 0 1-1-.5 0-1ZM1446.5 77q.8.3.5 1.5-.5 1-1 0-.2-1.2.5-1.5ZM73.5 78q.8.3.5 1.5-.5 1-1 0-.2-1.2.5-1.5ZM239.5 78q1 .5 0 1-1-.5 0-1ZM625.5 78q1 .5 0 1-1-.5 0-1ZM791.5 78q1 .5 0 1-1-.5 0-1ZM978.5 78q1 .5 0 1-1-.5 0-1ZM1187.5 78q1 .5 0 1-1-.5 0-1ZM1021.5 79q1 .5 0 1-1-.5 0-1ZM1279.5 79q.8.3.5 1.5-.5 1-1 0-.2-1.2.5-1.5ZM240.5 80q.8.3.5 1.5-.5 1-1 0-.2-1.2.5-1.5ZM331.5 80q1 .5 0 1-1-.5 0-1ZM497.5 80q1 .5 0 1-1-.5 0-1ZM624.5 80q1 .5 0 1-1-.5 0-1ZM790.5 80q.8.3.5 1.5-.5 1-1 0-.2-1.2.5-1.5ZM811.5 80q1 .5 0 1-1-.5 0-1ZM977.5 80q1 .5 0 1-1-.5 0-1ZM1445.5 80q1 .5 0 1-1-.5 0-1ZM74.5 81q1 .5 0 1-1-.5 0-1ZM1022.5 81q1 .5 0 1-1-.5 0-1ZM1188.5 81q1 .5 0 1-1-.5 0-1ZM330.5 82q1 .5 0 1-1-.5 0-1ZM496.5 82q1 .5 0 1-1-.5 0-1ZM623.5 82q.8.3.5 1.5-.5 1-1 0-.2-1.2.5-1.5ZM810.5 82q1 .5 0 1-1-.5 0-1ZM1278.5 82q1 .5 0 1-1-.5 0-1ZM1444.5 82q.8.3.5 1.5-.5 1-1 0-.2-1.2.5-1.5ZM75.5 83q1 .5 0 1-1-.5 0-1ZM241.5 83q1 .5 0 1-1-.5 0-1ZM789.5 83q1 .5 0 1-1-.5 0-1ZM976.5 83q1 .5 0 1-1-.5 0-1ZM1189.5 83q1 .5 0 1-1-.5 0-1ZM1023.5 84q1 .5 0 1-1-.5 0-1ZM1277.5 84q.8.3.5 1.5-.5 1-1 0-.2-1.2.5-1.5ZM242.5 85q1 .5 0 1-1-.5 0-1ZM329.5 85q1 .5 0 1-1-.5 0-1ZM495.5 85q1 .5 0 1-1-.5 0-1ZM622.5 85q1 .5 0 1-1-.5 0-1ZM788.5 85q.8.3.5 1.5-.5 1-1 0-.2-1.2.5-1.5ZM809.5 85q1 .5 0 1-1-.5 0-1ZM975.5 85q1 .5 0 1-1-.5 0-1ZM1443.5 85q1 .5 0 1-1-.5 0-1ZM76.5 86q1 .5 0 1-1-.5 0-1ZM1024.5 86q1 .5 0 1-1-.5 0-1ZM1190.5 86q1 .5 0 1-1-.5 0-1ZM328.5 87q1 .5 0 1-1-.5 0-1ZM494.5 87q1 .5 0 1-1-.5 0-1ZM621.5 87q.8.3.5 1.5-.5 1-1 0-.2-1.2.5-1.5ZM808.5 87q1 .5 0 1-1-.5 0-1ZM1276.5 87q1 .5 0 1-1-.5 0-1ZM1442.5 87q.8.3.5 1.5-.5 1-1 0-.2-1.2.5-1.5ZM77.5 88q1 .5 0 1-1-.5 0-1ZM243.5 88q1 .5 0 1-1-.5 0-1ZM787.5 88q1 .5 0 1-1-.5 0-1ZM974.5 88q1 .5 0 1-1-.5 0-1ZM1025.5 88q.8.3.5 1.5-.5 1-1 0-.2-1.2.5-1.5ZM1191.5 88q1 .5 0 1-1-.5 0-1ZM1275.5 89q.8.3.5 1.5-.5 1-1 0-.2-1.2.5-1.5ZM244.5 90q1 .5 0 1-1-.5 0-1ZM327.5 90q1 .5 0 1-1-.5 0-1ZM493.5 90q1 .5 0 1-1-.5 0-1ZM620.5 90q1 .5 0 1-1-.5 0-1ZM786.5 90q1 .5 0 1-1-.5 0-1ZM807.5 90q1 .5 0 1-1-.5 0-1ZM973.5 90q1 .5 0 1-1-.5 0-1ZM1192.5 90q.8.3.5 1.5-.5 1-1 0-.2-1.2.5-1.5ZM1441.5 90q1 .5 0 1-1-.5 0-1ZM78.5 91q1 .5 0 1-1-.5 0-1ZM1026.5 91q1 .5 0 1-1-.5 0-1ZM326.5 92q1 .5 0 1-1-.5 0-1ZM492.5 92q1 .5 0 1-1-.5 0-1ZM619.5 92q1 .5 0 1-1-.5 0-1ZM806.5 92q1 .5 0 1-1-.5 0-1ZM1274.5 92q1 .5 0 1-1-.5 0-1ZM1440.5 92q1 .5 0 1-1-.5 0-1ZM79.5 93q1 .5 0 1-1-.5 0-1ZM245.5 93q1 .5 0 1-1-.5 0-1ZM785.5 93q1 .5 0 1-1-.5 0-1ZM972.5 93q1 .5 0 1-1-.5 0-1ZM1027.5 93q.8.3.5 1.5-.5 1-1 0-.2-1.2.5-1.5ZM1193.5 93q1 .5 0 1-1-.5 0-1ZM491.5 94q.8.3.5 1.5-.5 1-1 0-.2-1.2.5-1.5ZM1273.5 94q1 .5 0 1-1-.5 0-1ZM246.5 95q1 .5 0 1-1-.5 0-1ZM325.5 95q1 .5 0 1-1-.5 0-1ZM618.5 95q1 .5 0 1-1-.5 0-1ZM784.5 95q1 .5 0 1-1-.5 0-1ZM805.5 95q1 .5 0 1-1-.5 0-1ZM971.5 95q1 .5 0 1-1-.5 0-1ZM1194.5 95q.8.3.5 1.5-.5 1-1 0-.2-1.2.5-1.5ZM1439.5 95q1 .5 0 1-1-.5 0-1ZM80.5 96q1 .5 0 1-1-.5 0-1ZM1028.5 96q1 .5 0 1-1-.5 0-1ZM324.5 97q1 .5 0 1-1-.5 0-1ZM490.5 97q1 .5 0 1-1-.5 0-1ZM617.5 97q1 .5 0 1-1-.5 0-1ZM804.5 97q1 .5 0 1-1-.5 0-1ZM970.5 97q.8.3.5 1.5-.5 1-1 0-.2-1.2.5-1.5ZM1272.5 97q1 .5 0 1-1-.5 0-1ZM1438.5 97q1 .5 0 1-1-.5 0-1ZM81.5 98q1 .5 0 1-1-.5 0-1ZM247.5 98q1 .5 0 1-1-.5 0-1ZM783.5 98q1 .5 0 1-1-.5 0-1ZM1029.5 98q.8.3.5 1.5-.5 1-1 0-.2-1.2.5-1.5ZM1195.5 98q1 .5 0 1-1-.5 0-1ZM323.5 99q.8.3.5 1.5-.5 1-1 0-.2-1.2.5-1.5ZM489.5 99q.8.3.5 1.5-.5 1-1 0-.2-1.2.5-1.5ZM803.5 99q.8.3.5 1.5-.5 1-1 0-.2-1.2.5-1.5ZM1271.5 99q1 .5 0 1-1-.5 0-1ZM82.5 100q.8.3.5 1.5-.5 1-1 0-.2-1.2.5-1.5ZM248.5 100q1 .5 0 1-1-.5 0-1ZM616.5 100q1 .5 0 1-1-.5 0-1ZM782.5 100q1 .5 0 1-1-.5 0-1ZM969.5 100q1 .5 0 1-1-.5 0-1ZM1196.5 100q.8.3.5 1.5-.5 1-1 0-.2-1.2.5-1.5ZM1437.5 100q1 .5 0 1-1-.5 0-1ZM1030.5 101q1 .5 0 1-1-.5 0-1ZM249.5 102q.8.3.5 1.5-.5 1-1 0-.2-1.2.5-1.5ZM322.5 102q1 .5 0 1-1-.5 0-1ZM488.5 102q1 .5 0 1-1-.5 0-1ZM615.5 102q1 .5 0 1-1-.5 0-1ZM802.5 102q1 .5 0 1-1-.5 0-1ZM968.5 102q.8.3.5 1.5-.5 1-1 0-.2-1.2.5-1.5ZM1270.5 102q1 .5 0 1-1-.5 0-1ZM1436.5 102q1 .5 0 1-1-.5 0-1ZM83.5 103q1 .5 0 1-1-.5 0-1ZM781.5 103q1 .5 0 1-1-.5 0-1ZM1031.5 103q1 .5 0 1-1-.5 0-1ZM1197.5 103q1 .5 0 1-1-.5 0-1ZM321.5 104q.8.3.5 1.5-.5 1-1 0-.2-1.2.5-1.5ZM487.5 104q.8.3.5 1.5-.5 1-1 0-.2-1.2.5-1.5ZM801.5 104q.8.3.5 1.5-.5 1-1 0-.2-1.2.5-1.5ZM1269.5 104q1 .5 0 1-1-.5 0-1ZM84.5 105q.8.3.5 1.5-.5 1-1 0-.2-1.2.5-1.5ZM250.5 105q1 .5 0 1-1-.5 0-1ZM614.5 105q1 .5 0 1-1-.5 0-1ZM780.5 105q1 .5 0 1-1-.5 0-1ZM967.5 105q1 .5 0 1-1-.5 0-1ZM1198.5 105q1 .5 0 1-1-.5 0-1ZM1435.5 105q1 .5 0 1-1-.5 0-1ZM1032.5 106q1 .5 0 1-1-.5 0-1ZM251.5 107q.8.3.5 1.5-.5 1-1 0-.2-1.2.5-1.5ZM320.5 107q1 .5 0 1-1-.5 0-1ZM486.5 107q1 .5 0 1-1-.5 0-1ZM613.5 107q1 .5 0 1-1-.5 0-1ZM779.5 107q.8.3.5 1.5-.5 1-1 0-.2-1.2.5-1.5ZM800.5 107q1 .5 0 1-1-.5 0-1ZM966.5 107q.8.3.5 1.5-.5 1-1 0-.2-1.2.5-1.5ZM1268.5 107q1 .5 0 1-1-.5 0-1ZM1434.5 107q1 .5 0 1-1-.5 0-1ZM85.5 108q1 .5 0 1-1-.5 0-1ZM1033.5 108q1 .5 0 1-1-.5 0-1ZM1199.5 108q1 .5 0 1-1-.5 0-1ZM319.5 109q1 .5 0 1-1-.5 0-1ZM485.5 109q1 .5 0 1-1-.5 0-1ZM612.5 109q.8.3.5 1.5-.5 1-1 0-.2-1.2.5-1.5ZM799.5 109q1 .5 0 1-1-.5 0-1ZM1267.5 109q1 .5 0 1-1-.5 0-1ZM1433.5 109q.8.3.5 1.5-.5 1-1 0-.2-1.2.5-1.5ZM86.5 110q.8.3.5 1.5-.5 1-1 0-.2-1.2.5-1.5ZM252.5 110q1 .5 0 1-1-.5 0-1ZM778.5 110q1 .5 0 1-1-.5 0-1ZM965.5 110q1 .5 0 1-1-.5 0-1ZM1200.5 110q1 .5 0 1-1-.5 0-1ZM1034.5 111q1 .5 0 1-1-.5 0-1ZM1266.5 111q.8.3.5 1.5-.5 1-1 0-.2-1.2.5-1.5ZM253.5 112q.8.3.5 1.5-.5 1-1 0-.2-1.2.5-1.5ZM318.5 112q1 .5 0 1-1-.5 0-1ZM484.5 112q1 .5 0 1-1-.5 0-1ZM611.5 112q1 .5 0 1-1-.5 0-1ZM777.5 112q.8.3.5 1.5-.5 1-1 0-.2-1.2.5-1.5ZM798.5 112q1 .5 0 1-1-.5 0-1ZM964.5 112q1 .5 0 1-1-.5 0-1ZM1432.5 112q1 .5 0 1-1-.5 0-1ZM87.5 113q1 .5 0 1-1-.5 0-1ZM1035.5 113q1 .5 0 1-1-.5 0-1ZM1201.5 113q1 .5 0 1-1-.5 0-1ZM317.5 114q1 .5 0 1-1-.5 0-1ZM483.5 114q1 .5 0 1-1-.5 0-1ZM610.5 114q.8.3.5 1.5-.5 1-1 0-.2-1.2.5-1.5ZM797.5 114q1 .5 0 1-1-.5 0-1ZM1265.5 114q1 .5 0 1-1-.5 0-1ZM1431.5 114q.8.3.5 1.5-.5 1-1 0-.2-1.2.5-1.5ZM88.5 115q1 .5 0 1-1-.5 0-1ZM254.5 115q1 .5 0 1-1-.5 0-1ZM776.5 115q1 .5 0 1-1-.5 0-1ZM963.5 115q1 .5 0 1-1-.5 0-1ZM1202.5 115q1 .5 0 1-1-.5 0-1ZM1036.5 116q1 .5 0 1-1-.5 0-1ZM1264.5 116q.8.3.5 1.5-.5 1-1 0-.2-1.2.5-1.5ZM255.5 117q1 .5 0 1-1-.5 0-1ZM316.5 117q1 .5 0 1-1-.5 0-1ZM482.5 117q1 .5 0 1-1-.5 0-1ZM609.5 117q1 .5 0 1-1-.5 0-1ZM775.5 117q.8.3.5 1.5-.5 1-1 0-.2-1.2.5-1.5ZM796.5 117q1 .5 0 1-1-.5 0-1ZM962.5 117q1 .5 0 1-1-.5 0-1ZM1430.5 117q1 .5 0 1-1-.5 0-1ZM89.5 118q1 .5 0 1-1-.5 0-1ZM1037.5 118q1 .5 0 1-1-.5 0-1ZM1203.5 118q1 .5 0 1-1-.5 0-1ZM315.5 119q1 .5 0 1-1-.5 0-1ZM481.5 119q1 .5 0 1-1-.5 0-1ZM608.5 119q.8.3.5 1.5-.5 1-1 0-.2-1.2.5-1.5ZM795.5 119q1 .5 0 1-1-.5 0-1ZM1263.5 119q1 .5 0 1-1-.5 0-1ZM1429.5 119q.8.3.5 1.5-.5 1-1 0-.2-1.2.5-1.5ZM90.5 120q1 .5 0 1-1-.5 0-1ZM256.5 120q1 .5 0 1-1-.5 0-1ZM774.5 120q1 .5 0 1-1-.5 0-1ZM961.5 120q1 .5 0 1-1-.5 0-1ZM1038.5 120q.8.3.5 1.5-.5 1-1 0-.2-1.2.5-1.5ZM1204.5 120q1 .5 0 1-1-.5 0-1ZM1262.5 121q1 .5 0 1-1-.5 0-1ZM257.5 122q1 .5 0 1-1-.5 0-1ZM314.5 122q1 .5 0 1-1-.5 0-1ZM480.5 122q1 .5 0 1-1-.5 0-1ZM607.5 122q1 .5 0 1-1-.5 0-1ZM773.5 122q1 .5 0 1-1-.5 0-1ZM794.5 122q1 .5 0 1-1-.5 0-1ZM960.5 122q1 .5 0 1-1-.5 0-1ZM1205.5 122q.8.3.5 1.5-.5 1-1 0-.2-1.2.5-1.5ZM1428.5 122q1 .5 0 1-1-.5 0-1ZM91.5 123q1 .5 0 1-1-.5 0-1ZM1039.5 123q1 .5 0 1-1-.5 0-1ZM313.5 124q1 .5 0 1-1-.5 0-1ZM479.5 124q1 .5 0 1-1-.5 0-1ZM606.5 124q1 .5 0 1-1-.5 0-1ZM793.5 124q1 .5 0 1-1-.5 0-1ZM1261.5 124q1 .5 0 1-1-.5 0-1ZM1427.5 124q1 .5 0 1-1-.5 0-1ZM92.5 125q1 .5 0 1-1-.5 0-1ZM258.5 125q1 .5 0 1-1-.5 0-1ZM772.5 125q1 .5 0 1-1-.5 0-1ZM959.5 125q1 .5 0 1-1-.5 0-1ZM1040.5 125q.8.3.5 1.5-.5 1-1 0-.2-1.2.5-1.5ZM1206.5 125q1 .5 0 1-1-.5 0-1ZM478.5 126q.8.3.5 1.5-.5 1-1 0-.2-1.2.5-1.5ZM792.5 126q.8.3.5 1.5-.5 1-1 0-.2-1.2.5-1.5ZM1260.5 126q1 .5 0 1-1-.5 0-1ZM259.5 127q1 .5 0 1-1-.5 0-1ZM312.5 127q1 .5 0 1-1-.5 0-1ZM605.5 127q1 .5 0 1-1-.5 0-1ZM771.5 127q1 .5 0 1-1-.5 0-1ZM958.5 127q1 .5 0 1-1-.5 0-1ZM1207.5 127q.8.3.5 1.5-.5 1-1 0-.2-1.2.5-1.5ZM1426.5 127q1 .5 0 1-1-.5 0-1ZM93.5 128q1 .5 0 1-1-.5 0-1ZM1041.5 128q1 .5 0 1-1-.5 0-1ZM311.5 129q1 .5 0 1-1-.5 0-1ZM477.5 129q1 .5 0 1-1-.5 0-1ZM604.5 129q1 .5 0 1-1-.5 0-1ZM791.5 129q1 .5 0 1-1-.5 0-1ZM957.5 129q.8.3.5 1.5-.5 1-1 0-.2-1.2.5-1.5ZM1259.5 129q1 .5 0 1-1-.5 0-1ZM1425.5 129q1 .5 0 1-1-.5 0-1ZM94.5 130q1 .5 0 1-1-.5 0-1ZM260.5 130q1 .5 0 1-1-.5 0-1ZM770.5 130q1 .5 0 1-1-.5 0-1ZM1042.5 130q.8.3.5 1.5-.5 1-1 0-.2-1.2.5-1.5ZM1208.5 130q1 .5 0 1-1-.5 0-1ZM310.5 131q.8.3.5 1.5-.5 1-1 0-.2-1.2.5-1.5ZM476.5 131q.8.3.5 1.5-.5 1-1 0-.2-1.2.5-1.5ZM790.5 131q.8.3.5 1.5-.5 1-1 0-.2-1.2.5-1.5ZM1258.5 131q1 .5 0 1-1-.5 0-1ZM95.5 132q.8.3.5 1.5-.5 1-1 0-.2-1.2.5-1.5ZM261.5 132q1 .5 0 1-1-.5 0-1ZM603.5 132q1 .5 0 1-1-.5 0-1ZM769.5 132q1 .5 0 1-1-.5 0-1ZM956.5 132q1 .5 0 1-1-.5 0-1ZM1209.5 132q1 .5 0 1-1-.5 0-1ZM1424.5 132q1 .5 0 1-1-.5 0-1ZM1043.5 133q1 .5 0 1-1-.5 0-1ZM262.5 134q.8.3.5 1.5-.5 1-1 0-.2-1.2.5-1.5ZM309.5 134q1 .5 0 1-1-.5 0-1ZM475.5 134q1 .5 0 1-1-.5 0-1ZM602.5 134q1 .5 0 1-1-.5 0-1ZM789.5 134q1 .5 0 1-1-.5 0-1ZM955.5 134q.8.3.5 1.5-.5 1-1 0-.2-1.2.5-1.5ZM1257.5 134q1 .5 0 1-1-.5 0-1ZM1423.5 134q1 .5 0 1-1-.5 0-1ZM96.5 135q1 .5 0 1-1-.5 0-1ZM768.5 135q1 .5 0 1-1-.5 0-1ZM1044.5 135q1 .5 0 1-1-.5 0-1ZM1210.5 135q1 .5 0 1-1-.5 0-1ZM308.5 136q.8.3.5 1.5-.5 1-1 0-.2-1.2.5-1.5ZM788.5 136q.8.3.5 1.5-.5 1-1 0-.2-1.2.5-1.5ZM1256.5 136q1 .5 0 1-1-.5 0-1ZM97.5 137q.8.3.5 1.5-.5 1-1 0-.2-1.2.5-1.5ZM263.5 137q1 .5 0 1-1-.5 0-1ZM474.5 137q1 .5 0 1-1-.5 0-1ZM601.5 137q1 .5 0 1-1-.5 0-1ZM767.5 137q1 .5 0 1-1-.5 0-1ZM954.5 137q1 .5 0 1-1-.5 0-1ZM1211.5 137q1 .5 0 1-1-.5 0-1ZM1422.5 137q1 .5 0 1-1-.5 0-1ZM1045.5 138q1 .5 0 1-1-.5 0-1ZM1255.5 138q.8.3.5 1.5-.5 1-1 0-.2-1.2.5-1.5ZM264.5 139q.8.3.5 1.5-.5 1-1 0-.2-1.2.5-1.5ZM307.5 139q1 .5 0 1-1-.5 0-1ZM473.5 139q1 .5 0 1-1-.5 0-1ZM600.5 139q1 .5 0 1-1-.5 0-1ZM766.5 139q.8.3.5 1.5-.5 1-1 0-.2-1.2.5-1.5ZM787.5 139q1 .5 0 1-1-.5 0-1ZM953.5 139q1 .5 0 1-1-.5 0-1ZM1421.5 139q1 .5 0 1-1-.5 0-1ZM98.5 140q1 .5 0 1-1-.5 0-1ZM1046.5 140q1 .5 0 1-1-.5 0-1ZM1212.5 140q1 .5 0 1-1-.5 0-1ZM306.5 141q1 .5 0 1-1-.5 0-1ZM599.5 141q.8.3.5 1.5-.5 1-1 0-.2-1.2.5-1.5ZM786.5 141q1 .5 0 1-1-.5 0-1ZM1254.5 141q1 .5 0 1-1-.5 0-1ZM1420.5 141q.8.3.5 1.5-.5 1-1 0-.2-1.2.5-1.5ZM99.5 142q.8.3.5 1.5-.5 1-1 0-.2-1.2.5-1.5ZM265.5 142q1 .5 0 1-1-.5 0-1ZM472.5 142q1 .5 0 1-1-.5 0-1ZM765.5 142q1 .5 0 1-1-.5 0-1ZM952.5 142q1 .5 0 1-1-.5 0-1ZM1213.5 142q1 .5 0 1-1-.5 0-1ZM1047.5 143q1 .5 0 1-1-.5 0-1ZM1253.5 143q.8.3.5 1.5-.5 1-1 0-.2-1.2.5-1.5ZM266.5 144q1 .5 0 1-1-.5 0-1ZM305.5 144q1 .5 0 1-1-.5 0-1ZM471.5 144q1 .5 0 1-1-.5 0-1ZM598.5 144q1 .5 0 1-1-.5 0-1ZM764.5 144q.8.3.5 1.5-.5 1-1 0-.2-1.2.5-1.5ZM785.5 144q1 .5 0 1-1-.5 0-1ZM951.5 144q1 .5 0 1-1-.5 0-1ZM1419.5 144q1 .5 0 1-1-.5 0-1ZM100.5 145q1 .5 0 1-1-.5 0-1ZM1048.5 145q1 .5 0 1-1-.5 0-1ZM1214.5 145q1 .5 0 1-1-.5 0-1ZM304.5 146q1 .5 0 1-1-.5 0-1ZM597.5 146q.8.3.5 1.5-.5 1-1 0-.2-1.2.5-1.5ZM784.5 146q1 .5 0 1-1-.5 0-1ZM1252.5 146q1 .5 0 1-1-.5 0-1ZM1418.5 146q.8.3.5 1.5-.5 1-1 0-.2-1.2.5-1.5ZM101.5 147q1 .5 0 1-1-.5 0-1ZM267.5 147q1 .5 0 1-1-.5 0-1ZM470.5 147q1 .5 0 1-1-.5 0-1ZM763.5 147q1 .5 0 1-1-.5 0-1ZM950.5 147q1 .5 0 1-1-.5 0-1ZM1215.5 147q1 .5 0 1-1-.5 0-1ZM1049.5 148q1 .5 0 1-1-.5 0-1ZM1251.5 148q.8.3.5 1.5-.5 1-1 0-.2-1.2.5-1.5ZM268.5 149q1 .5 0 1-1-.5 0-1ZM303.5 149q1 .5 0 1-1-.5 0-1ZM469.5 149q1 .5 0 1-1-.5 0-1ZM596.5 149q1 .5 0 1-1-.5 0-1ZM762.5 149q.8.3.5 1.5-.5 1-1 0-.2-1.2.5-1.5ZM783.5 149q1 .5 0 1-1-.5 0-1ZM949.5 149q1 .5 0 1-1-.5 0-1ZM1216.5 149q.8.3.5 1.5-.5 1-1 0-.2-1.2.5-1.5ZM1417.5 149q1 .5 0 1-1-.5 0-1ZM102.5 150q1 .5 0 1-1-.5 0-1ZM1050.5 150q1 .5 0 1-1-.5 0-1ZM302.5 151q1 .5 0 1-1-.5 0-1ZM595.5 151q1 .5 0 1-1-.5 0-1ZM782.5 151q1 .5 0 1-1-.5 0-1ZM1250.5 151q1 .5 0 1-1-.5 0-1ZM1416.5 151q1 .5 0 1-1-.5 0-1ZM103.5 152q1 .5 0 1-1-.5 0-1ZM269.5 152q1 .5 0 1-1-.5 0-1ZM468.5 152q1 .5 0 1-1-.5 0-1ZM761.5 152q1 .5 0 1-1-.5 0-1ZM948.5 152q1 .5 0 1-1-.5 0-1ZM1051.5 152q.8.3.5 1.5-.5 1-1 0-.2-1.2.5-1.5ZM1217.5 152q1 .5 0 1-1-.5 0-1ZM1249.5 153q1 .5 0 1-1-.5 0-1ZM270.5 154q1 .5 0 1-1-.5 0-1ZM301.5 154q1 .5 0 1-1-.5 0-1ZM467.5 154q1 .5 0 1-1-.5 0-1ZM594.5 154q1 .5 0 1-1-.5 0-1ZM760.5 154q1 .5 0 1-1-.5 0-1ZM781.5 154q1 .5 0 1-1-.5 0-1ZM947.5 154q1 .5 0 1-1-.5 0-1ZM1218.5 154q.8.3.5 1.5-.5 1-1 0-.2-1.2.5-1.5ZM1415.5 154q1 .5 0 1-1-.5 0-1ZM104.5 155q1 .5 0 1-1-.5 0-1ZM1052.5 155q1 .5 0 1-1-.5 0-1ZM300.5 156q1 .5 0 1-1-.5 0-1ZM466.5 156q.8.3.5 1.5-.5 1-1 0-.2-1.2.5-1.5ZM593.5 156q1 .5 0 1-1-.5 0-1ZM780.5 156q1 .5 0 1-1-.5 0-1ZM946.5 156q.8.3.5 1.5-.5 1-1 0-.2-1.2.5-1.5ZM1248.5 156q1 .5 0 1-1-.5 0-1ZM1414.5 156q1 .5 0 1-1-.5 0-1ZM105.5 157q1 .5 0 1-1-.5 0-1ZM271.5 157q1 .5 0 1-1-.5 0-1ZM759.5 157q1 .5 0 1-1-.5 0-1ZM1053.5 157q.8.3.5 1.5-.5 1-1 0-.2-1.2.5-1.5ZM1219.5 157q1 .5 0 1-1-.5 0-1ZM299.5 158q.8.3.5 1.5-.5 1-1 0-.2-1.2.5-1.5ZM779.5 158q.8.3.5 1.5-.5 1-1 0-.2-1.2.5-1.5ZM1247.5 158q1 .5 0 1-1-.5 0-1ZM272.5 159q1 .5 0 1-1-.5 0-1ZM465.5 159q1 .5 0 1-1-.5 0-1ZM592.5 159q1 .5 0 1-1-.5 0-1ZM758.5 159q1 .5 0 1-1-.5 0-1ZM945.5 159q1 .5 0 1-1-.5 0-1ZM1220.5 159q.8.3.5 1.5-.5 1-1 0-.2-1.2.5-1.5ZM1413.5 159q1 .5 0 1-1-.5 0-1ZM106.5 160q1 .5 0 1-1-.5 0-1ZM1054.5 160q1 .5 0 1-1-.5 0-1ZM273.5 161q.8.3.5 1.5-.5 1-1 0-.2-1.2.5-1.5ZM298.5 161q1 .5 0 1-1-.5 0-1ZM464.5 161q.8.3.5 1.5-.5 1-1 0-.2-1.2.5-1.5ZM591.5 161q1 .5 0 1-1-.5 0-1ZM778.5 161q1 .5 0 1-1-.5 0-1ZM944.5 161q.8.3.5 1.5-.5 1-1 0-.2-1.2.5-1.5ZM1246.5 161q1 .5 0 1-1-.5 0-1ZM1412.5 161q1 .5 0 1-1-.5 0-1ZM107.5 162q1 .5 0 1-1-.5 0-1ZM757.5 162q1 .5 0 1-1-.5 0-1ZM1055.5 162q1 .5 0 1-1-.5 0-1ZM1221.5 162q1 .5 0 1-1-.5 0-1ZM297.5 163q.8.3.5 1.5-.5 1-1 0-.2-1.2.5-1.5ZM777.5 163q.8.3.5 1.5-.5 1-1 0-.2-1.2.5-1.5ZM1245.5 163q1 .5 0 1-1-.5 0-1ZM108.5 164q.8.3.5 1.5-.5 1-1 0-.2-1.2.5-1.5ZM274.5 164q1 .5 0 1-1-.5 0-1ZM463.5 164q1 .5 0 1-1-.5 0-1ZM590.5 164q1 .5 0 1-1-.5 0-1ZM756.5 164q1 .5 0 1-1-.5 0-1ZM943.5 164q1 .5 0 1-1-.5 0-1ZM1222.5 164q1 .5 0 1-1-.5 0-1ZM1411.5 164q1 .5 0 1-1-.5 0-1ZM1056.5 165q1 .5 0 1-1-.5 0-1ZM275.5 166q.8.3.5 1.5-.5 1-1 0-.2-1.2.5-1.5ZM296.5 166q1 .5 0 1-1-.5 0-1ZM462.5 166q.8.3.5 1.5-.5 1-1 0-.2-1.2.5-1.5ZM589.5 166q1 .5 0 1-1-.5 0-1ZM776.5 166q1 .5 0 1-1-.5 0-1ZM942.5 166q.8.3.5 1.5-.5 1-1 0-.2-1.2.5-1.5ZM1244.5 166q1 .5 0 1-1-.5 0-1ZM1410.5 166q1 .5 0 1-1-.5 0-1ZM109.5 167q1 .5 0 1-1-.5 0-1ZM755.5 167q1 .5 0 1-1-.5 0-1ZM1057.5 167q1 .5 0 1-1-.5 0-1ZM1223.5 167q1 .5 0 1-1-.5 0-1ZM295.5 168q.8.3.5 1.5-.5 1-1 0-.2-1.2.5-1.5ZM588.5 168q.8.3.5 1.5-.5 1-1 0-.2-1.2.5-1.5ZM775.5 168q.8.3.5 1.5-.5 1-1 0-.2-1.2.5-1.5ZM1243.5 168q1 .5 0 1-1-.5 0-1ZM1409.5 168q.8.3.5 1.5-.5 1-1 0-.2-1.2.5-1.5ZM110.5 169q.8.3.5 1.5-.5 1-1 0-.2-1.2.5-1.5ZM276.5 169q1 .5 0 1-1-.5 0-1ZM461.5 169q1 .5 0 1-1-.5 0-1ZM754.5 169q1 .5 0 1-1-.5 0-1ZM941.5 169q1 .5 0 1-1-.5 0-1ZM1224.5 169q1 .5 0 1-1-.5 0-1ZM1058.5 170q1 .5 0 1-1-.5 0-1ZM1242.5 170q.8.3.5 1.5-.5 1-1 0-.2-1.2.5-1.5ZM277.5 171q.8.3.5 1.5-.5 1-1 0-.2-1.2.5-1.5ZM294.5 171q1 .5 0 1-1-.5 0-1ZM460.5 171q1 .5 0 1-1-.5 0-1ZM587.5 171q1 .5 0 1-1-.5 0-1ZM753.5 171q.8.3.5 1.5-.5 1-1 0-.2-1.2.5-1.5ZM774.5 171q1 .5 0 1-1-.5 0-1ZM940.5 171q1 .5 0 1-1-.5 0-1ZM1408.5 171q1 .5 0 1-1-.5 0-1ZM111.5 172q1 .5 0 1-1-.5 0-1ZM1059.5 172q1 .5 0 1-1-.5 0-1ZM1225.5 172q1 .5 0 1-1-.5 0-1ZM293.5 173q1 .5 0 1-1-.5 0-1ZM586.5 173q.8.3.5 1.5-.5 1-1 0-.2-1.2.5-1.5ZM773.5 173q1 .5 0 1-1-.5 0-1ZM1241.5 173q1 .5 0 1-1-.5 0-1ZM1407.5 173q.8.3.5 1.5-.5 1-1 0-.2-1.2.5-1.5ZM112.5 174q1 .5 0 1-1-.5 0-1ZM278.5 174q1 .5 0 1-1-.5 0-1ZM459.5 174q1 .5 0 1-1-.5 0-1ZM752.5 174q1 .5 0 1-1-.5 0-1ZM939.5 174q1 .5 0 1-1-.5 0-1ZM1226.5 174q1 .5 0 1-1-.5 0-1ZM1060.5 175q1 .5 0 1-1-.5 0-1ZM1240.5 175q.8.3.5 1.5-.5 1-1 0-.2-1.2.5-1.5ZM279.5 176q1 .5 0 1-1-.5 0-1ZM292.5 176q1 .5 0 1-1-.5 0-1ZM458.5 176q1 .5 0 1-1-.5 0-1ZM585.5 176q1 .5 0 1-1-.5 0-1ZM751.5 176q.8.3.5 1.5-.5 1-1 0-.2-1.2.5-1.5ZM772.5 176q1 .5 0 1-1-.5 0-1ZM938.5 176q1 .5 0 1-1-.5 0-1ZM1406.5 176q1 .5 0 1-1-.5 0-1ZM113.5 177q1 .5 0 1-1-.5 0-1ZM1061.5 177q1 .5 0 1-1-.5 0-1ZM1227.5 177q1 .5 0 1-1-.5 0-1ZM291.5 178q1 .5 0 1-1-.5 0-1ZM584.5 178q.8.3.5 1.5-.5 1-1 0-.2-1.2.5-1.5ZM771.5 178q1 .5 0 1-1-.5 0-1ZM1239.5 178q1 .5 0 1-1-.5 0-1ZM1405.5 178q.8.3.5 1.5-.5 1-1 0-.2-1.2.5-1.5ZM114.5 179q1 .5 0 1-1-.5 0-1ZM280.5 179q1 .5 0 1-1-.5 0-1ZM457.5 179q1 .5 0 1-1-.5 0-1ZM750.5 179q1 .5 0 1-1-.5 0-1ZM937.5 179q1 .5 0 1-1-.5 0-1ZM1062.5 179q.8.3.5 1.5-.5 1-1 0-.2-1.2.5-1.5ZM1228.5 179q1 .5 0 1-1-.5 0-1ZM1238.5 180q.8.3.5 1.5-.5 1-1 0-.2-1.2.5-1.5ZM281.5 181q1 .5 0 1-1-.5 0-1ZM290.5 181q1 .5 0 1-1-.5 0-1ZM456.5 181q1 .5 0 1-1-.5 0-1ZM583.5 181q1 .5 0 1-1-.5 0-1ZM749.5 181q1 .5 0 1-1-.5 0-1ZM770.5 181q1 .5 0 1-1-.5 0-1ZM936.5 181q1 .5 0 1-1-.5 0-1ZM1229.5 181q.8.3.5 1.5-.5 1-1 0-.2-1.2.5-1.5ZM1404.5 181q1 .5 0 1-1-.5 0-1ZM115.5 182q1 .5 0 1-1-.5 0-1ZM1063.5 182q1 .5 0 1-1-.5 0-1ZM289.5 183q1 .5 0 1-1-.5 0-1ZM582.5 183q1 .5 0 1-1-.5 0-1ZM769.5 183q1 .5 0 1-1-.5 0-1ZM1237.5 183q1 .5 0 1-1-.5 0-1ZM1403.5 183q1 .5 0 1-1-.5 0-1ZM116.5 184q1 .5 0 1-1-.5 0-1ZM282.5 184q1 .5 0 1-1-.5 0-1ZM455.5 184q1 .5 0 1-1-.5 0-1ZM748.5 184q1 .5 0 1-1-.5 0-1ZM935.5 184q1 .5 0 1-1-.5 0-1ZM1064.5 184q.8.3.5 1.5-.5 1-1 0-.2-1.2.5-1.5ZM1230.5 184q1 .5 0 1-1-.5 0-1ZM288.5 185q.8.3.5 1.5-.5 1-1 0-.2-1.2.5-1.5ZM1236.5 185q1 .5 0 1-1-.5 0-1ZM283.5 186q1 .5 0 1-1-.5 0-1ZM454.5 186q1 .5 0 1-1-.5 0-1ZM581.5 186q1 .5 0 1-1-.5 0-1ZM747.5 186q1 .5 0 1-1-.5 0-1ZM768.5 186q1 .5 0 1-1-.5 0-1ZM934.5 186q1 .5 0 1-1-.5 0-1ZM1231.5 186q.8.3.5 1.5-.5 1-1 0-.2-1.2.5-1.5ZM1402.5 186q1 .5 0 1-1-.5 0-1ZM117.5 187q1 .5 0 1-1-.5 0-1ZM1065.5 187q1 .5 0 1-1-.5 0-1ZM284.5 188q.8.3.5 1.5-.5 1-1 0-.2-1.2.5-1.5ZM287.5 188q1 .5 0 1-1-.5 0-1ZM453.5 188q.8.3.5 1.5-.5 1-1 0-.2-1.2.5-1.5ZM580.5 188q1 .5 0 1-1-.5 0-1ZM767.5 188q1 .5 0 1-1-.5 0-1ZM933.5 188q.8.3.5 1.5-.5 1-1 0-.2-1.2.5-1.5ZM1235.5 188q1 .5 0 1-1-.5 0-1ZM1401.5 188q1 .5 0 1-1-.5 0-1ZM118.5 189q1 .5 0 1-1-.5 0-1ZM746.5 189q1 .5 0 1-1-.5 0-1ZM1066.5 189q.8.3.5 1.5-.5 1-1 0-.2-1.2.5-1.5ZM1232.5 189q1 .5 0 1-1-.5 0-1ZM286.5 190q.8.3.5 1.5l-1 1 1 1-.5.5-1.5-1.5v-1zM766.5 190q.8.3.5 1.5-.5 1-1 0-.2-1.2.5-1.5ZM1234.5 190l.5.5-1 1q-.3 1.7 1 2l-.5.5-1.5-1.5v-1zM452.5 191q.8.3.5 1.5-.5 1-1 0-.2-1.2.5-1.5ZM579.5 191q1 .5 0 1-1-.5 0-1ZM745.5 191q1 .5 0 1-1-.5 0-1ZM932.5 191q.8.3.5 1.5-.5 1-1 0-.2-1.2.5-1.5ZM1400.5 191q1 .5.5 2.5-.5 1-1 0-.5-2 .5-2.5ZM119.5 192q1 .5 0 1-1-.5 0-1ZM578.5 193q1 .5 0 1-1-.5 0-1ZM766.5 193q1 .5 0 1-1-.5 0-1ZM118.5 194q1 .5 0 1-1-.5 0-1ZM744.5 194q1 .5 0 1-1-.5 0-1ZM1066.5 194q1 .5 0 1-1-.5 0-1ZM1232.5 194q.8.3.5 1.5-.5 1-1 0-.2-1.2.5-1.5ZM284.5 195q1 .5 0 1-1-.5 0-1ZM287.5 195q.8.3.5 1.5-.5 1-1 0-.2-1.2.5-1.5ZM453.5 195q1 .5 0 1-1-.5 0-1ZM767.5 195q1 .5 0 1-1-.5 0-1ZM933.5 195q1 .5 0 1-1-.5 0-1ZM1401.5 195q1 .5 0 1-1-.5 0-1ZM577.5 196q1 .5 0 1-1-.5 0-1ZM743.5 196q1 .5 0 1-1-.5 0-1ZM1065.5 196q1 .5 0 1-1-.5 0-1ZM1235.5 196q1 .5 0 1-1-.5 0-1ZM117.5 197q1 .5 0 1-1-.5 0-1ZM283.5 197q1 .5 0 1-1-.5 0-1ZM454.5 197q1 .5 0 1-1-.5 0-1ZM934.5 197q1 .5 0 1-1-.5 0-1ZM1231.5 197q1 .5 0 1-1-.5 0-1ZM1402.5 197q.8.3.5 1.5-.5 1-1 0-.2-1.2.5-1.5ZM288.5 198q1 .5 0 1-1-.5 0-1ZM576.5 198q1 .5 0 1-1-.5 0-1ZM742.5 198q.8.3.5 1.5-.5 1-1 0-.2-1.2.5-1.5ZM768.5 198q1 .5 0 1-1-.5 0-1ZM1236.5 198q1 .5 0 1-1-.5 0-1ZM116.5 199q1 .5 0 1-1-.5 0-1ZM1064.5 199q1 .5 0 1-1-.5 0-1ZM1230.5 199q1 .5 0 1-1-.5 0-1ZM282.5 200q1 .5 0 1-1-.5 0-1ZM289.5 200q1 .5 0 1-1-.5 0-1ZM455.5 200q1 .5 0 1-1-.5 0-1ZM575.5 200q.8.3.5 1.5-.5 1-1 0-.2-1.2.5-1.5ZM769.5 200q1 .5 0 1-1-.5 0-1ZM935.5 200q1 .5 0 1-1-.5 0-1ZM1237.5 200q.8.3.5 1.5-.5 1-1 0-.2-1.2.5-1.5ZM1403.5 200q1 .5 0 1-1-.5 0-1ZM115.5 201q.8.3.5 1.5-.5 1-1 0-.2-1.2.5-1.5ZM741.5 201q1 .5 0 1-1-.5 0-1ZM1063.5 201q1 .5 0 1-1-.5 0-1ZM281.5 202q1 .5 0 1-1-.5 0-1ZM456.5 202q1 .5 0 1-1-.5 0-1ZM936.5 202q1 .5 0 1-1-.5 0-1ZM1229.5 202q1 .5 0 1-1-.5 0-1ZM1404.5 202q.8.3.5 1.5-.5 1-1 0-.2-1.2.5-1.5ZM290.5 203q1 .5 0 1-1-.5 0-1ZM574.5 203q1 .5 0 1-1-.5 0-1ZM740.5 203q.8.3.5 1.5-.5 1-1 0-.2-1.2.5-1.5ZM770.5 203q1 .5 0 1-1-.5 0-1ZM1238.5 203q1 .5 0 1-1-.5 0-1ZM114.5 204q1 .5 0 1-1-.5 0-1ZM280.5 204q.8.3.5 1.5-.5 1-1 0-.2-1.2.5-1.5ZM457.5 204q.8.3.5 1.5-.5 1-1 0-.2-1.2.5-1.5ZM937.5 204q.8.3.5 1.5-.5 1-1 0-.2-1.2.5-1.5ZM1062.5 204q1 .5 0 1-1-.5 0-1ZM1228.5 204q1 .5 0 1-1-.5 0-1ZM291.5 205q1 .5 0 1-1-.5 0-1ZM573.5 205q.8.3.5 1.5-.5 1-1 0-.2-1.2.5-1.5ZM771.5 205q1 .5 0 1-1-.5 0-1ZM1239.5 205q1 .5 0 1-1-.5 0-1ZM1405.5 205q1 .5 0 1-1-.5 0-1ZM113.5 206q.8.3.5 1.5-.5 1-1 0-.2-1.2.5-1.5ZM739.5 206q1 .5 0 1-1-.5 0-1ZM1061.5 206q1 .5 0 1-1-.5 0-1ZM279.5 207q1 .5 0 1-1-.5 0-1ZM292.5 207q.8.3.5 1.5-.5 1-1 0-.2-1.2.5-1.5ZM458.5 207q1 .5 0 1-1-.5 0-1ZM772.5 207q.8.3.5 1.5-.5 1-1 0-.2-1.2.5-1.5ZM938.5 207q1 .5 0 1-1-.5 0-1ZM1227.5 207q1 .5 0 1-1-.5 0-1ZM1406.5 207q1 .5 0 1-1-.5 0-1ZM572.5 208q1 .5 0 1-1-.5 0-1ZM738.5 208q.8.3.5 1.5-.5 1-1 0-.2-1.2.5-1.5ZM1240.5 208q1 .5 0 1-1-.5 0-1ZM112.5 209q1 .5 0 1-1-.5 0-1ZM278.5 209q.8.3.5 1.5-.5 1-1 0-.2-1.2.5-1.5ZM459.5 209q.8.3.5 1.5-.5 1-1 0-.2-1.2.5-1.5ZM939.5 209q.8.3.5 1.5-.5 1-1 0-.2-1.2.5-1.5ZM1060.5 209q1 .5 0 1-1-.5 0-1ZM1226.5 209q1 .5 0 1-1-.5 0-1ZM293.5 210q1 .5 0 1-1-.5 0-1ZM571.5 210q.8.3.5 1.5-.5 1-1 0-.2-1.2.5-1.5ZM773.5 210q1 .5 0 1-1-.5 0-1ZM1241.5 210q1 .5 0 1-1-.5 0-1ZM1407.5 210q1 .5 0 1-1-.5 0-1ZM111.5 211q.8.3.5 1.5-.5 1-1 0-.2-1.2.5-1.5ZM737.5 211q1 .5 0 1-1-.5 0-1ZM1059.5 211q1 .5 0 1-1-.5 0-1ZM277.5 212q1 .5 0 1-1-.5 0-1ZM294.5 212q.8.3.5 1.5-.5 1-1 0-.2-1.2.5-1.5ZM460.5 212q1 .5 0 1-1-.5 0-1ZM774.5 212q.8.3.5 1.5-.5 1-1 0-.2-1.2.5-1.5ZM940.5 212q1 .5 0 1-1-.5 0-1ZM1225.5 212q1 .5 0 1-1-.5 0-1ZM1408.5 212q1 .5 0 1-1-.5 0-1ZM570.5 213q1 .5 0 1-1-.5 0-1ZM736.5 213q1 .5 0 1-1-.5 0-1ZM1058.5 213q.8.3.5 1.5-.5 1-1 0-.2-1.2.5-1.5ZM1242.5 213q1 .5 0 1-1-.5 0-1ZM110.5 214q1 .5 0 1-1-.5 0-1ZM276.5 214q1 .5 0 1-1-.5 0-1ZM461.5 214q.8.3.5 1.5-.5 1-1 0-.2-1.2.5-1.5ZM941.5 214q.8.3.5 1.5-.5 1-1 0-.2-1.2.5-1.5ZM1224.5 214q1 .5 0 1-1-.5 0-1ZM295.5 215q1 .5 0 1-1-.5 0-1ZM569.5 215q1 .5 0 1-1-.5 0-1ZM775.5 215q1 .5 0 1-1-.5 0-1ZM1243.5 215q1 .5 0 1-1-.5 0-1ZM1409.5 215q1 .5 0 1-1-.5 0-1ZM109.5 216q1 .5 0 1-1-.5 0-1ZM735.5 216q1 .5 0 1-1-.5 0-1ZM1057.5 216q1 .5 0 1-1-.5 0-1ZM1223.5 216q.8.3.5 1.5-.5 1-1 0-.2-1.2.5-1.5ZM275.5 217q1 .5 0 1-1-.5 0-1ZM296.5 217q1 .5 0 1-1-.5 0-1ZM462.5 217q1 .5 0 1-1-.5 0-1ZM776.5 217q1 .5 0 1-1-.5 0-1ZM942.5 217q1 .5 0 1-1-.5 0-1ZM1410.5 217q1 .5 0 1-1-.5 0-1ZM568.5 218q1 .5 0 1-1-.5 0-1ZM734.5 218q1 .5 0 1-1-.5 0-1ZM1056.5 218q.8.3.5 1.5-.5 1-1 0-.2-1.2.5-1.5ZM1244.5 218q1 .5 0 1-1-.5 0-1ZM108.5 219q1 .5 0 1-1-.5 0-1ZM274.5 219q1 .5 0 1-1-.5 0-1ZM463.5 219q1 .5 0 1-1-.5 0-1ZM943.5 219q1 .5 0 1-1-.5 0-1ZM1222.5 219q1 .5 0 1-1-.5 0-1ZM297.5 220q1 .5 0 1-1-.5 0-1ZM567.5 220q1 .5 0 1-1-.5 0-1ZM777.5 220q1 .5 0 1-1-.5 0-1ZM1245.5 220q1 .5 0 1-1-.5 0-1ZM1411.5 220q1 .5 0 1-1-.5 0-1ZM107.5 221q1 .5 0 1-1-.5 0-1ZM733.5 221q1 .5 0 1-1-.5 0-1ZM1055.5 221q1 .5 0 1-1-.5 0-1ZM1221.5 221q.8.3.5 1.5-.5 1-1 0-.2-1.2.5-1.5ZM273.5 222q1 .5 0 1-1-.5 0-1ZM298.5 222q1 .5 0 1-1-.5 0-1ZM464.5 222q1 .5 0 1-1-.5 0-1ZM778.5 222q1 .5 0 1-1-.5 0-1ZM944.5 222q1 .5 0 1-1-.5 0-1ZM1246.5 222q.8.3.5 1.5-.5 1-1 0-.2-1.2.5-1.5ZM1412.5 222q1 .5 0 1-1-.5 0-1ZM566.5 223q1 .5 0 1-1-.5 0-1ZM732.5 223q1 .5 0 1-1-.5 0-1ZM1054.5 223q.8.3.5 1.5-.5 1-1 0-.2-1.2.5-1.5ZM106.5 224q1 .5 0 1-1-.5 0-1ZM272.5 224q1 .5 0 1-1-.5 0-1ZM465.5 224q1 .5 0 1-1-.5 0-1ZM945.5 224q1 .5 0 1-1-.5 0-1ZM1220.5 224q1 .5 0 1-1-.5 0-1ZM1413.5 224q.8.3.5 1.5-.5 1-1 0-.2-1.2.5-1.5ZM299.5 225q1 .5 0 1-1-.5 0-1ZM565.5 225q1 .5 0 1-1-.5 0-1ZM779.5 225q1 .5 0 1-1-.5 0-1ZM1247.5 225q1 .5 0 1-1-.5 0-1ZM105.5 226q1 .5 0 1-1-.5 0-1ZM731.5 226q1 .5 0 1-1-.5 0-1ZM1053.5 226q1 .5 0 1-1-.5 0-1ZM1219.5 226q1 .5 0 1-1-.5 0-1ZM271.5 227q1 .5 0 1-1-.5 0-1ZM300.5 227q1 .5 0 1-1-.5 0-1ZM466.5 227q1 .5 0 1-1-.5 0-1ZM780.5 227q1 .5 0 1-1-.5 0-1ZM946.5 227q1 .5 0 1-1-.5 0-1ZM1248.5 227q.8.3.5 1.5-.5 1-1 0-.2-1.2.5-1.5ZM1414.5 227q1 .5 0 1-1-.5 0-1ZM564.5 228q1 .5 0 1-1-.5 0-1ZM730.5 228q1 .5 0 1-1-.5 0-1ZM1052.5 228q1 .5 0 1-1-.5 0-1ZM104.5 229q1 .5 0 1-1-.5 0-1ZM270.5 229q1 .5 0 1-1-.5 0-1ZM467.5 229q1 .5 0 1-1-.5 0-1ZM947.5 229q1 .5 0 1-1-.5 0-1ZM1218.5 229q1 .5 0 1-1-.5 0-1ZM1415.5 229q.8.3.5 1.5-.5 1-1 0-.2-1.2.5-1.5ZM301.5 230q1 .5 0 1-1-.5 0-1ZM563.5 230q1 .5 0 1-1-.5 0-1ZM729.5 230q.8.3.5 1.5-.5 1-1 0-.2-1.2.5-1.5ZM781.5 230q1 .5 0 1-1-.5 0-1ZM1249.5 230q1 .5 0 1-1-.5 0-1ZM103.5 231q1 .5 0 1-1-.5 0-1ZM269.5 231q.8.3.5 1.5-.5 1-1 0-.2-1.2.5-1.5ZM1051.5 231q1 .5 0 1-1-.5 0-1ZM1217.5 231q1 .5 0 1-1-.5 0-1ZM302.5 232q1 .5 0 1-1-.5 0-1ZM468.5 232q1 .5 0 1-1-.5 0-1ZM562.5 232q.8.3.5 1.5-.5 1-1 0-.2-1.2.5-1.5ZM782.5 232q1 .5 0 1-1-.5 0-1ZM948.5 232q1 .5 0 1-1-.5 0-1ZM1250.5 232q.8.3.5 1.5-.5 1-1 0-.2-1.2.5-1.5ZM1416.5 232q1 .5 0 1-1-.5 0-1ZM102.5 233q.8.3.5 1.5-.5 1-1 0-.2-1.2.5-1.5ZM728.5 233q1 .5 0 1-1-.5 0-1ZM1050.5 233q1 .5 0 1-1-.5 0-1ZM268.5 234q1 .5 0 1-1-.5 0-1ZM303.5 234q.8.3.5 1.5-.5 1-1 0-.2-1.2.5-1.5ZM469.5 234q1 .5 0 1-1-.5 0-1ZM949.5 234q1 .5 0 1-1-.5 0-1ZM1216.5 234q1 .5 0 1-1-.5 0-1ZM1417.5 234q.8.3.5 1.5-.5 1-1 0-.2-1.2.5-1.5ZM561.5 235q1 .5 0 1-1-.5 0-1ZM727.5 235q.8.3.5 1.5-.5 1-1 0-.2-1.2.5-1.5ZM783.5 235q1 .5 0 1-1-.5 0-1ZM1251.5 235q1 .5 0 1-1-.5 0-1ZM101.5 236q1 .5 0 1-1-.5 0-1ZM267.5 236q.8.3.5 1.5-.5 1-1 0-.2-1.2.5-1.5ZM470.5 236q.8.3.5 1.5-.5 1-1 0-.2-1.2.5-1.5ZM950.5 236q.8.3.5 1.5-.5 1-1 0-.2-1.2.5-1.5ZM1049.5 236q1 .5 0 1-1-.5 0-1ZM1215.5 236q1 .5 0 1-1-.5 0-1ZM304.5 237q1 .5 0 1-1-.5 0-1ZM560.5 237q.8.3.5 1.5-.5 1-1 0-.2-1.2.5-1.5ZM784.5 237q1 .5 0 1-1-.5 0-1ZM1252.5 237q1 .5 0 1-1-.5 0-1ZM1418.5 237q1 .5 0 1-1-.5 0-1ZM100.5 238q.8.3.5 1.5-.5 1-1 0-.2-1.2.5-1.5ZM726.5 238q1 .5 0 1-1-.5 0-1ZM1048.5 238q1 .5 0 1-1-.5 0-1ZM266.5 239q1 .5 0 1-1-.5 0-1ZM305.5 239q.8.3.5 1.5-.5 1-1 0-.2-1.2.5-1.5ZM471.5 239q1 .5 0 1-1-.5 0-1ZM785.5 239q.8.3.5 1.5-.5 1-1 0-.2-1.2.5-1.5ZM951.5 239q1 .5 0 1-1-.5 0-1ZM1214.5 239q1 .5 0 1-1-.5 0-1ZM1419.5 239q1 .5 0 1-1-.5 0-1ZM559.5 240q1 .5 0 1-1-.5 0-1ZM725.5 240q.8.3.5 1.5-.5 1-1 0-.2-1.2.5-1.5ZM1253.5 240q1 .5 0 1-1-.5 0-1ZM99.5 241q1 .5 0 1-1-.5 0-1ZM265.5 241q.8.3.5 1.5-.5 1-1 0-.2-1.2.5-1.5ZM472.5 241q.8.3.5 1.5-.5 1-1 0-.2-1.2.5-1.5ZM952.5 241q.8.3.5 1.5-.5 1-1 0-.2-1.2.5-1.5ZM1047.5 241q1 .5 0 1-1-.5 0-1ZM1213.5 241q1 .5 0 1-1-.5 0-1ZM306.5 242q1 .5 0 1-1-.5 0-1ZM558.5 242q1 .5 0 1-1-.5 0-1ZM786.5 242q1 .5 0 1-1-.5 0-1ZM1254.5 242q1 .5 0 1-1-.5 0-1ZM1420.5 242q1 .5 0 1-1-.5 0-1ZM98.5 243q1 .5 0 1-1-.5 0-1ZM724.5 243q1 .5 0 1-1-.5 0-1ZM1046.5 243q1 .5 0 1-1-.5 0-1ZM1212.5 243q.8.3.5 1.5-.5 1-1 0-.2-1.2.5-1.5ZM264.5 244q1 .5 0 1-1-.5 0-1ZM307.5 244q.8.3.5 1.5-.5 1-1 0-.2-1.2.5-1.5ZM473.5 244q1 .5 0 1-1-.5 0-1ZM787.5 244q.8.3.5 1.5-.5 1-1 0-.2-1.2.5-1.5ZM953.5 244q1 .5 0 1-1-.5 0-1ZM1421.5 244q1 .5 0 1-1-.5 0-1ZM557.5 245q1 .5 0 1-1-.5 0-1ZM723.5 245q1 .5 0 1-1-.5 0-1ZM1045.5 245q.8.3.5 1.5-.5 1-1 0-.2-1.2.5-1.5ZM1255.5 245q1 .5 0 1-1-.5 0-1ZM97.5 246q1 .5 0 1-1-.5 0-1ZM263.5 246q1 .5 0 1-1-.5 0-1ZM474.5 246q.8.3.5 1.5-.5 1-1 0-.2-1.2.5-1.5ZM954.5 246q.8.3.5 1.5-.5 1-1 0-.2-1.2.5-1.5ZM1211.5 246q1 .5 0 1-1-.5 0-1ZM308.5 247q1 .5 0 1-1-.5 0-1ZM556.5 247q1 .5 0 1-1-.5 0-1ZM788.5 247q1 .5 0 1-1-.5 0-1ZM1256.5 247q1 .5 0 1-1-.5 0-1ZM1422.5 247q1 .5 0 1-1-.5 0-1ZM96.5 248q1 .5 0 1-1-.5 0-1ZM722.5 248q1 .5 0 1-1-.5 0-1ZM1044.5 248q1 .5 0 1-1-.5 0-1ZM1210.5 248q.8.3.5 1.5-.5 1-1 0-.2-1.2.5-1.5ZM262.5 249q1 .5 0 1-1-.5 0-1ZM309.5 249q1 .5 0 1-1-.5 0-1ZM475.5 249q.8.3.5 1.5-.5 1-1 0-.2-1.2.5-1.5ZM789.5 249q1 .5 0 1-1-.5 0-1ZM955.5 249q1 .5 0 1-1-.5 0-1ZM1423.5 249q1 .5 0 1-1-.5 0-1ZM555.5 250q1 .5 0 1-1-.5 0-1ZM721.5 250q1 .5 0 1-1-.5 0-1ZM1043.5 250q.8.3.5 1.5-.5 1-1 0-.2-1.2.5-1.5ZM1257.5 250q1 .5 0 1-1-.5 0-1ZM95.5 251q1 .5 0 1-1-.5 0-1ZM261.5 251q1 .5 0 1-1-.5 0-1ZM956.5 251q1 .5 0 1-1-.5 0-1ZM1209.5 251q1 .5 0 1-1-.5 0-1ZM310.5 252q1 .5 0 1-1-.5 0-1ZM476.5 252q1 .5 0 1-1-.5 0-1ZM554.5 252q1 .5 0 1-1-.5 0-1ZM790.5 252q1 .5 0 1-1-.5 0-1ZM1258.5 252q1 .5 0 1-1-.5 0-1ZM1424.5 252q1 .5 0 1-1-.5 0-1ZM94.5 253q1 .5 0 1-1-.5 0-1ZM720.5 253q1 .5 0 1-1-.5 0-1ZM1042.5 253q1 .5 0 1-1-.5 0-1ZM1208.5 253q.8.3.5 1.5-.5 1-1 0-.2-1.2.5-1.5ZM260.5 254q1 .5 0 1-1-.5 0-1ZM311.5 254q1 .5 0 1-1-.5 0-1ZM477.5 254q1 .5 0 1-1-.5 0-1ZM791.5 254q1 .5 0 1-1-.5 0-1ZM957.5 254q1 .5 0 1-1-.5 0-1ZM1259.5 254q.8.3.5 1.5-.5 1-1 0-.2-1.2.5-1.5ZM1425.5 254q1 .5 0 1-1-.5 0-1ZM553.5 255q1 .5 0 1-1-.5 0-1ZM719.5 255q1 .5 0 1-1-.5 0-1ZM1041.5 255q1 .5 0 1-1-.5 0-1ZM93.5 256q1 .5 0 1-1-.5 0-1ZM259.5 256q1 .5 0 1-1-.5 0-1ZM958.5 256q1 .5 0 1-1-.5 0-1ZM1207.5 256q1 .5 0 1-1-.5 0-1ZM1426.5 256q.8.3.5 1.5-.5 1-1 0-.2-1.2.5-1.5ZM312.5 257q1 .5 0 1-1-.5 0-1ZM478.5 257q1 .5 0 1-1-.5 0-1ZM552.5 257q1 .5 0 1-1-.5 0-1ZM792.5 257q1 .5 0 1-1-.5 0-1ZM1260.5 257q1 .5 0 1-1-.5 0-1ZM92.5 258q1 .5 0 1-1-.5 0-1ZM718.5 258q1 .5 0 1-1-.5 0-1ZM1040.5 258q1 .5 0 1-1-.5 0-1ZM1206.5 258q1 .5 0 1-1-.5 0-1ZM258.5 259q1 .5 0 1-1-.5 0-1ZM313.5 259q1 .5 0 1-1-.5 0-1ZM479.5 259q1 .5 0 1-1-.5 0-1ZM551.5 259q.8.3.5 1.5-.5 1-1 0-.2-1.2.5-1.5ZM793.5 259q1 .5 0 1-1-.5 0-1ZM959.5 259q1 .5 0 1-1-.5 0-1ZM1261.5 259q.8.3.5 1.5-.5 1-1 0-.2-1.2.5-1.5ZM1427.5 259q1 .5 0 1-1-.5 0-1ZM717.5 260q1 .5 0 1-1-.5 0-1ZM1039.5 260q1 .5 0 1-1-.5 0-1ZM91.5 261q1 .5 0 1-1-.5 0-1ZM257.5 261q1 .5 0 1-1-.5 0-1ZM960.5 261q1 .5 0 1-1-.5 0-1ZM1205.5 261q1 .5 0 1-1-.5 0-1ZM1428.5 261q.8.3.5 1.5-.5 1-1 0-.2-1.2.5-1.5ZM314.5 262q1 .5 0 1-1-.5 0-1ZM480.5 262q1 .5 0 1-1-.5 0-1ZM550.5 262q1 .5 0 1-1-.5 0-1ZM716.5 262q.8.3.5 1.5-.5 1-1 0-.2-1.2.5-1.5ZM794.5 262q1 .5 0 1-1-.5 0-1ZM1262.5 262q1 .5 0 1-1-.5 0-1ZM90.5 263q1 .5 0 1-1-.5 0-1ZM256.5 263q.8.3.5 1.5-.5 1-1 0-.2-1.2.5-1.5ZM1038.5 263q1 .5 0 1-1-.5 0-1ZM1204.5 263q1 .5 0 1-1-.5 0-1ZM315.5 264q1 .5 0 1-1-.5 0-1ZM481.5 264q1 .5 0 1-1-.5 0-1ZM549.5 264q.8.3.5 1.5-.5 1-1 0-.2-1.2.5-1.5ZM795.5 264q1 .5 0 1-1-.5 0-1ZM961.5 264q1 .5 0 1-1-.5 0-1ZM1263.5 264q.8.3.5 1.5-.5 1-1 0-.2-1.2.5-1.5ZM1429.5 264q1 .5 0 1-1-.5 0-1ZM89.5 265q.8.3.5 1.5-.5 1-1 0-.2-1.2.5-1.5ZM715.5 265q1 .5 0 1-1-.5 0-1ZM1037.5 265q1 .5 0 1-1-.5 0-1ZM255.5 266q1 .5 0 1-1-.5 0-1ZM316.5 266q.8.3.5 1.5-.5 1-1 0-.2-1.2.5-1.5ZM796.5 266q.8.3.5 1.5-.5 1-1 0-.2-1.2.5-1.5ZM962.5 266q1 .5 0 1-1-.5 0-1ZM1203.5 266q1 .5 0 1-1-.5 0-1ZM1430.5 266q1 .5 0 1-1-.5 0-1ZM482.5 267q1 .5 0 1-1-.5 0-1ZM548.5 267q1 .5 0 1-1-.5 0-1ZM714.5 267q.8.3.5 1.5-.5 1-1 0-.2-1.2.5-1.5ZM1264.5 267q1 .5 0 1-1-.5 0-1ZM88.5 268q1 .5 0 1-1-.5 0-1ZM254.5 268q.8.3.5 1.5-.5 1-1 0-.2-1.2.5-1.5ZM963.5 268q.8.3.5 1.5-.5 1-1 0-.2-1.2.5-1.5ZM1036.5 268q1 .5 0 1-1-.5 0-1ZM1202.5 268q1 .5 0 1-1-.5 0-1ZM317.5 269q1 .5 0 1-1-.5 0-1ZM483.5 269q1 .5 0 1-1-.5 0-1ZM547.5 269q.8.3.5 1.5-.5 1-1 0-.2-1.2.5-1.5ZM797.5 269q1 .5 0 1-1-.5 0-1ZM1265.5 269q1 .5 0 1-1-.5 0-1ZM1431.5 269q1 .5 0 1-1-.5 0-1ZM87.5 270q.8.3.5 1.5-.5 1-1 0-.2-1.2.5-1.5ZM713.5 270q1 .5 0 1-1-.5 0-1ZM1035.5 270q1 .5 0 1-1-.5 0-1ZM253.5 271q1 .5 0 1-1-.5 0-1ZM318.5 271q.8.3.5 1.5-.5 1-1 0-.2-1.2.5-1.5ZM484.5 271q.8.3.5 1.5-.5 1-1 0-.2-1.2.5-1.5ZM798.5 271q.8.3.5 1.5-.5 1-1 0-.2-1.2.5-1.5ZM964.5 271q1 .5 0 1-1-.5 0-1ZM1201.5 271q1 .5 0 1-1-.5 0-1ZM1432.5 271q1 .5 0 1-1-.5 0-1ZM546.5 272q1 .5 0 1-1-.5 0-1ZM712.5 272q1 .5 0 1-1-.5 0-1ZM1266.5 272q1 .5 0 1-1-.5 0-1ZM86.5 273q1 .5 0 1-1-.5 0-1ZM252.5 273q1 .5 0 1-1-.5 0-1ZM965.5 273q.8.3.5 1.5-.5 1-1 0-.2-1.2.5-1.5ZM1034.5 273q1 .5 0 1-1-.5 0-1ZM1200.5 273q1 .5 0 1-1-.5 0-1ZM319.5 274q1 .5 0 1-1-.5 0-1ZM485.5 274q1 .5 0 1-1-.5 0-1ZM545.5 274q1 .5 0 1-1-.5 0-1ZM799.5 274q1 .5 0 1-1-.5 0-1ZM1267.5 274q1 .5 0 1-1-.5 0-1ZM1433.5 274q1 .5 0 1-1-.5 0-1ZM85.5 275q1 .5 0 1-1-.5 0-1ZM711.5 275q1 .5 0 1-1-.5 0-1ZM1033.5 275q1 .5 0 1-1-.5 0-1ZM1199.5 275q.8.3.5 1.5-.5 1-1 0-.2-1.2.5-1.5ZM251.5 276q1 .5 0 1-1-.5 0-1ZM320.5 276q.8.3.5 1.5-.5 1-1 0-.2-1.2.5-1.5ZM486.5 276q.8.3.5 1.5-.5 1-1 0-.2-1.2.5-1.5ZM800.5 276q.8.3.5 1.5-.5 1-1 0-.2-1.2.5-1.5ZM966.5 276q1 .5 0 1-1-.5 0-1ZM1434.5 276q1 .5 0 1-1-.5 0-1ZM544.5 277q1 .5 0 1-1-.5 0-1ZM710.5 277q1 .5 0 1-1-.5 0-1ZM1032.5 277q.8.3.5 1.5-.5 1-1 0-.2-1.2.5-1.5ZM1268.5 277q1 .5 0 1-1-.5 0-1ZM84.5 278q1 .5 0 1-1-.5 0-1ZM250.5 278q1 .5 0 1-1-.5 0-1ZM967.5 278q1 .5 0 1-1-.5 0-1ZM1198.5 278q1 .5 0 1-1-.5 0-1ZM321.5 279q1 .5 0 1-1-.5 0-1ZM487.5 279q1 .5 0 1-1-.5 0-1ZM543.5 279q1 .5 0 1-1-.5 0-1ZM801.5 279q1 .5 0 1-1-.5 0-1ZM1269.5 279q1 .5 0 1-1-.5 0-1ZM1435.5 279q1 .5 0 1-1-.5 0-1ZM83.5 280q1 .5 0 1-1-.5 0-1ZM709.5 280q1 .5 0 1-1-.5 0-1ZM1031.5 280q1 .5 0 1-1-.5 0-1ZM1197.5 280q.8.3.5 1.5-.5 1-1 0-.2-1.2.5-1.5ZM249.5 281q1 .5 0 1-1-.5 0-1ZM322.5 281q1 .5 0 1-1-.5 0-1ZM488.5 281q1 .5 0 1-1-.5 0-1ZM802.5 281q1 .5 0 1-1-.5 0-1ZM968.5 281q1 .5 0 1-1-.5 0-1ZM1436.5 281q1 .5 0 1-1-.5 0-1ZM542.5 282q1 .5 0 1-1-.5 0-1ZM708.5 282q1 .5 0 1-1-.5 0-1ZM1030.5 282q.8.3.5 1.5-.5 1-1 0-.2-1.2.5-1.5ZM1270.5 282q1 .5 0 1-1-.5 0-1ZM82.5 283q1 .5 0 1-1-.5 0-1ZM248.5 283q1 .5 0 1-1-.5 0-1ZM969.5 283q1 .5 0 1-1-.5 0-1ZM1196.5 283q1 .5 0 1-1-.5 0-1ZM1437.5 283q.8.3.5 1.5-.5 1-1 0-.2-1.2.5-1.5ZM323.5 284q1 .5 0 1-1-.5 0-1ZM489.5 284q1 .5 0 1-1-.5 0-1ZM541.5 284q1 .5 0 1-1-.5 0-1ZM803.5 284q1 .5 0 1-1-.5 0-1ZM1271.5 284q1 .5 0 1-1-.5 0-1ZM81.5 285q1 .5 0 1-1-.5 0-1ZM707.5 285q1 .5 0 1-1-.5 0-1ZM1029.5 285q1 .5 0 1-1-.5 0-1ZM1195.5 285q1 .5 0 1-1-.5 0-1ZM247.5 286q1 .5 0 1-1-.5 0-1ZM324.5 286q1 .5 0 1-1-.5 0-1ZM490.5 286q1 .5 0 1-1-.5 0-1ZM804.5 286q1 .5 0 1-1-.5 0-1ZM970.5 286q1 .5 0 1-1-.5 0-1ZM1272.5 286q.8.3.5 1.5-.5 1-1 0-.2-1.2.5-1.5ZM1438.5 286q1 .5 0 1-1-.5 0-1ZM540.5 287q1 .5 0 1-1-.5 0-1ZM706.5 287q1 .5 0 1-1-.5 0-1ZM1028.5 287q1 .5 0 1-1-.5 0-1ZM80.5 288q1 .5 0 1-1-.5 0-1ZM246.5 288q1 .5 0 1-1-.5 0-1ZM971.5 288q1 .5 0 1-1-.5 0-1ZM1194.5 288q1 .5 0 1-1-.5 0-1ZM1439.5 288q.8.3.5 1.5-.5 1-1 0-.2-1.2.5-1.5ZM325.5 289q1 .5 0 1-1-.5 0-1ZM491.5 289q1 .5 0 1-1-.5 0-1ZM539.5 289q1 .5 0 1-1-.5 0-1ZM705.5 289q.8.3.5 1.5-.5 1-1 0-.2-1.2.5-1.5ZM805.5 289q1 .5 0 1-1-.5 0-1ZM1273.5 289q1 .5 0 1-1-.5 0-1ZM79.5 290q1 .5 0 1-1-.5 0-1ZM1027.5 290q1 .5 0 1-1-.5 0-1ZM1193.5 290q1 .5 0 1-1-.5 0-1ZM245.5 291q1 .5 0 1-1-.5 0-1ZM326.5 291q1 .5 0 1-1-.5 0-1ZM492.5 291q1 .5 0 1-1-.5 0-1ZM538.5 291q.8.3.5 1.5-.5 1-1 0-.2-1.2.5-1.5ZM806.5 291q1 .5 0 1-1-.5 0-1ZM972.5 291q1 .5 0 1-1-.5 0-1ZM1274.5 291q.8.3.5 1.5-.5 1-1 0-.2-1.2.5-1.5ZM1440.5 291q1 .5 0 1-1-.5 0-1ZM78.5 292q.8.3.5 1.5-.5 1-1 0-.2-1.2.5-1.5ZM704.5 292q1 .5 0 1-1-.5 0-1ZM1026.5 292q1 .5 0 1-1-.5 0-1ZM244.5 293q1 .5 0 1-1-.5 0-1ZM973.5 293q1 .5 0 1-1-.5 0-1ZM1192.5 293q1 .5 0 1-1-.5 0-1ZM1441.5 293q.8.3.5 1.5-.5 1-1 0-.2-1.2.5-1.5ZM327.5 294q1 .5 0 1-1-.5 0-1ZM493.5 294q1 .5 0 1-1-.5 0-1ZM537.5 294q1 .5 0 1-1-.5 0-1ZM703.5 294q.8.3.5 1.5-.5 1-1 0-.2-1.2.5-1.5ZM807.5 294q1 .5 0 1-1-.5 0-1ZM1275.5 294q1 .5 0 1-1-.5 0-1ZM77.5 295q1 .5 0 1-1-.5 0-1ZM243.5 295q.8.3.5 1.5-.5 1-1 0-.2-1.2.5-1.5ZM1025.5 295q1 .5 0 1-1-.5 0-1ZM1191.5 295q1 .5 0 1-1-.5 0-1ZM328.5 296q1 .5 0 1-1-.5 0-1ZM494.5 296q1 .5 0 1-1-.5 0-1ZM536.5 296q.8.3.5 1.5-.5 1-1 0-.2-1.2.5-1.5ZM808.5 296q1 .5 0 1-1-.5 0-1ZM974.5 296q1 .5 0 1-1-.5 0-1ZM1276.5 296q1 .5 0 1-1-.5 0-1ZM1442.5 296q1 .5 0 1-1-.5 0-1ZM76.5 297q.8.3.5 1.5-.5 1-1 0-.2-1.2.5-1.5ZM702.5 297q1 .5 0 1-1-.5 0-1ZM1024.5 297q1 .5 0 1-1-.5 0-1ZM242.5 298q1 .5 0 1-1-.5 0-1ZM329.5 298q.8.3.5 1.5-.5 1-1 0-.2-1.2.5-1.5ZM809.5 298q.8.3.5 1.5-.5 1-1 0-.2-1.2.5-1.5ZM975.5 298q1 .5 0 1-1-.5 0-1ZM1190.5 298q1 .5 0 1-1-.5 0-1ZM1443.5 298q1 .5 0 1-1-.5 0-1ZM495.5 299q1 .5 0 1-1-.5 0-1ZM535.5 299q1 .5 0 1-1-.5 0-1ZM701.5 299q.8.3.5 1.5-.5 1-1 0-.2-1.2.5-1.5ZM1277.5 299q1 .5 0 1-1-.5 0-1ZM75.5 300q1 .5 0 1-1-.5 0-1ZM241.5 300q.8.3.5 1.5-.5 1-1 0-.2-1.2.5-1.5ZM976.5 300q.8.3.5 1.5-.5 1-1 0-.2-1.2.5-1.5ZM1023.5 300q1 .5 0 1-1-.5 0-1ZM1189.5 300q1 .5 0 1-1-.5 0-1ZM330.5 301q1 .5 0 1-1-.5 0-1ZM496.5 301q1 .5 0 1-1-.5 0-1ZM534.5 301q1 .5 0 1-1-.5 0-1ZM810.5 301q1 .5 0 1-1-.5 0-1ZM1278.5 301q1 .5 0 1-1-.5 0-1ZM1444.5 301q1 .5 0 1-1-.5 0-1ZM74.5 302q.8.3.5 1.5-.5 1-1 0-.2-1.2.5-1.5ZM700.5 302q1 .5 0 1-1-.5 0-1ZM1022.5 302q1 .5 0 1-1-.5 0-1ZM1188.5 302q.8.3.5 1.5-.5 1-1 0-.2-1.2.5-1.5ZM240.5 303q1 .5 0 1-1-.5 0-1ZM331.5 303q.8.3.5 1.5-.5 1-1 0-.2-1.2.5-1.5ZM497.5 303q.8.3.5 1.5-.5 1-1 0-.2-1.2.5-1.5ZM811.5 303q.8.3.5 1.5-.5 1-1 0-.2-1.2.5-1.5ZM977.5 303q1 .5 0 1-1-.5 0-1ZM1445.5 303q1 .5 0 1-1-.5 0-1ZM533.5 304q1 .5 0 1-1-.5 0-1ZM699.5 304q1 .5 0 1-1-.5 0-1ZM1021.5 304q.8.3.5 1.5-.5 1-1 0-.2-1.2.5-1.5ZM1279.5 304q1 .5 0 1-1-.5 0-1ZM73.5 305q1 .5 0 1-1-.5 0-1ZM239.5 305q1 .5 0 1-1-.5 0-1ZM978.5 305q.8.3.5 1.5-.5 1-1 0-.2-1.2.5-1.5ZM1187.5 305q1 .5 0 1-1-.5 0-1ZM332.5 306q1 .5 0 1-1-.5 0-1ZM498.5 306q1 .5 0 1-1-.5 0-1ZM532.5 306q1 .5 0 1-1-.5 0-1ZM812.5 306q1 .5 0 1-1-.5 0-1ZM1280.5 306q1 .5 0 1-1-.5 0-1ZM1446.5 306q1 .5 0 1-1-.5 0-1ZM72.5 307q1 .5 0 1-1-.5 0-1ZM698.5 307q1 .5 0 1-1-.5 0-1ZM1020.5 307q1 .5 0 1-1-.5 0-1ZM1186.5 307q.8.3.5 1.5-.5 1-1 0-.2-1.2.5-1.5ZM238.5 308q1 .5 0 1-1-.5 0-1ZM333.5 308q1 .5 0 1-1-.5 0-1ZM499.5 308q.8.3.5 1.5-.5 1-1 0-.2-1.2.5-1.5ZM813.5 308q1 .5 0 1-1-.5 0-1ZM979.5 308q1 .5 0 1-1-.5 0-1ZM1447.5 308q1 .5 0 1-1-.5 0-1ZM531.5 309q1 .5 0 1-1-.5 0-1ZM697.5 309q1 .5 0 1-1-.5 0-1ZM1019.5 309q.8.3.5 1.5-.5 1-1 0-.2-1.2.5-1.5ZM1281.5 309q1 .5 0 1-1-.5 0-1ZM71.5 310q1 .5 0 1-1-.5 0-1ZM237.5 310q1 .5 0 1-1-.5 0-1ZM980.5 310q1 .5 0 1-1-.5 0-1ZM1185.5 310q1 .5 0 1-1-.5 0-1ZM334.5 311q1 .5 0 1-1-.5 0-1ZM500.5 311q1 .5 0 1-1-.5 0-1ZM530.5 311q1 .5 0 1-1-.5 0-1ZM814.5 311q1 .5 0 1-1-.5 0-1ZM1282.5 311q1 .5 0 1-1-.5 0-1ZM1448.5 311q1 .5 0 1-1-.5 0-1ZM70.5 312q1 .5 0 1-1-.5 0-1ZM236.5 312q1 .5 0 1-1-.5 0-1ZM981.5 312q1 .5 0 1-1-.5 0-1ZM1018.5 312q1 .5 0 1-1-.5 0-1ZM1184.5 312q1 .5 0 1-1-.5 0-1ZM335.5 313q1 .5 0 1-1-.5 0-1ZM501.5 313q1 .5 0 1-1-.5 0-1ZM529.5 313q1 .5 0 1-1-.5 0-1ZM815.5 313q1 .5 0 1-1-.5 0-1ZM1283.5 313q1 .5 0 1-1-.5 0-1ZM1449.5 313q1 .5 0 1-1-.5 0-1ZM69.5 314q1 .5 0 1-1-.5 0-1ZM695.5 314q1 .5 0 1-1-.5 0-1ZM1017.5 314q1 .5 0 1-1-.5 0-1ZM1183.5 314q.8.3.5 1.5-.5 1-1 0-.2-1.2.5-1.5ZM235.5 315q1 .5 0 1-1-.5 0-1ZM336.5 315q1 .5 0 1-1-.5 0-1ZM502.5 315q1 .5 0 1-1-.5 0-1ZM816.5 315q1 .5 0 1-1-.5 0-1ZM982.5 315q1 .5 0 1-1-.5 0-1ZM1284.5 315q.8.3.5 1.5-.5 1-1 0-.2-1.2.5-1.5ZM1450.5 315q1 .5 0 1-1-.5 0-1ZM528.5 316q1 .5 0 1-1-.5 0-1ZM694.5 316q1 .5 0 1-1-.5 0-1ZM1016.5 316q1 .5 0 1-1-.5 0-1ZM68.5 317q1 .5 0 1-1-.5 0-1ZM234.5 317q1 .5 0 1-1-.5 0-1ZM983.5 317q1 .5 0 1-1-.5 0-1ZM1182.5 317q1 .5 0 1-1-.5 0-1ZM1451.5 317q.8.3.5 1.5-.5 1-1 0-.2-1.2.5-1.5ZM337.5 318q1 .5 0 1-1-.5 0-1ZM503.5 318q1 .5 0 1-1-.5 0-1ZM527.5 318q1 .5 0 1-1-.5 0-1ZM817.5 318q1 .5 0 1-1-.5 0-1ZM1285.5 318q1 .5 0 1-1-.5 0-1ZM67.5 319q1 .5 0 1-1-.5 0-1ZM693.5 319q1 .5 0 1-1-.5 0-1ZM1015.5 319q1 .5 0 1-1-.5 0-1ZM1181.5 319q1 .5 0 1-1-.5 0-1ZM233.5 320q1 .5 0 1-1-.5 0-1ZM338.5 320q1 .5 0 1-1-.5 0-1ZM504.5 320q1 .5 0 1-1-.5 0-1ZM818.5 320q1 .5 0 1-1-.5 0-1ZM984.5 320q1 .5 0 1-1-.5 0-1ZM1286.5 320q.8.3.5 1.5-.5 1-1 0-.2-1.2.5-1.5ZM1452.5 320q1 .5 0 1-1-.5 0-1ZM526.5 321q1 .5 0 1-1-.5 0-1ZM692.5 321q1 .5 0 1-1-.5 0-1ZM1014.5 321q1 .5 0 1-1-.5 0-1ZM66.5 322q1 .5 0 1-1-.5 0-1ZM232.5 322q1 .5 0 1-1-.5 0-1ZM985.5 322q1 .5 0 1-1-.5 0-1ZM1180.5 322q1 .5 0 1-1-.5 0-1ZM1453.5 322q.8.3.5 1.5-.5 1-1 0-.2-1.2.5-1.5ZM339.5 323q1 .5 0 1-1-.5 0-1ZM505.5 323q1 .5 0 1-1-.5 0-1ZM525.5 323q1 .5 0 1-1-.5 0-1ZM691.5 323q.8.3.5 1.5-.5 1-1 0-.2-1.2.5-1.5ZM819.5 323q1 .5 0 1-1-.5 0-1ZM1287.5 323q1 .5 0 1-1-.5 0-1ZM65.5 324q1 .5 0 1-1-.5 0-1ZM231.5 324q.8.3.5 1.5-.5 1-1 0-.2-1.2.5-1.5ZM1013.5 324q1 .5 0 1-1-.5 0-1ZM1179.5 324q1 .5 0 1-1-.5 0-1ZM340.5 325q1 .5 0 1-1-.5 0-1ZM506.5 325q1 .5 0 1-1-.5 0-1ZM820.5 325q1 .5 0 1-1-.5 0-1ZM986.5 325q1 .5 0 1-1-.5 0-1ZM1288.5 325q1 .5 0 1-1-.5 0-1ZM1454.5 325q1 .5 0 1-1-.5 0-1ZM524.5 326q1 .5 0 1-1-.5 0-1ZM690.5 326q1 .5 0 1-1-.5 0-1ZM1012.5 326q1 .5 0 1-1-.5 0-1ZM64.5 327q1 .5 0 1-1-.5 0-1ZM230.5 327q1 .5 0 1-1-.5 0-1ZM341.5 327q1 .5 0 1-1-.5 0-1ZM821.5 327q1 .5 0 1-1-.5 0-1ZM987.5 327q1 .5 0 1-1-.5 0-1ZM1178.5 327q1 .5 0 1-1-.5 0-1ZM1455.5 327q1 .5 0 1-1-.5 0-1Z" opacity=".851"/><path fill="#fffeff" stroke="#fffeff" stroke-width=".5" d="M341.5 56q1 .5 0 1-1-.5 0-1ZM821.5 56q1 .5 0 1-1-.5 0-1ZM1289.5 56q1 .5 0 1-1-.5 0-1ZM230.5 57q1 .5 0 1-1-.5 0-1ZM506.5 57q1 .5 0 1-1-.5 0-1ZM986.5 57q1 .5 0 1-1-.5 0-1ZM1178.5 57q1 .5 0 1-1-.5 0-1ZM1454.5 57q1 .5 0 1-1-.5 0-1ZM65.5 58q1 .5 0 1-1-.5 0-1ZM1013.5 58q1 .5 0 1-1-.5 0-1ZM231.5 59q1 .5 0 1-1-.5 0-1ZM505.5 59q1 .5 0 1-1-.5 0-1ZM633.5 59q1 .5 0 1-1-.5 0-1ZM66.5 60q1 .5 0 1-1-.5 0-1ZM798.5 60q1 .5 0 1-1-.5 0-1ZM985.5 60q1 .5 0 1-1-.5 0-1ZM339.5 61q1 .5 0 1-1-.5 0-1ZM632.5 61q1 .5 0 1-1-.5 0-1ZM819.5 61q1 .5 0 1-1-.5 0-1ZM1287.5 61q1 .5 0 1-1-.5 0-1ZM232.5 62q1 .5 0 1-1-.5 0-1ZM984.5 62q1 .5 0 1-1-.5 0-1ZM1180.5 62q1 .5 0 1-1-.5 0-1ZM1452.5 62q1 .5 0 1-1-.5 0-1ZM67.5 63q1 .5 0 1-1-.5 0-1ZM1015.5 63q1 .5 0 1-1-.5 0-1ZM1286.5 63q1 .5 0 1-1-.5 0-1ZM233.5 64q1 .5 0 1-1-.5 0-1ZM503.5 64q1 .5 0 1-1-.5 0-1ZM631.5 64q1 .5 0 1-1-.5 0-1ZM68.5 65q1 .5 0 1-1-.5 0-1ZM796.5 65q1 .5 0 1-1-.5 0-1ZM337.5 66q1 .5 0 1-1-.5 0-1ZM630.5 66q1 .5 0 1-1-.5 0-1ZM817.5 66q1 .5 0 1-1-.5 0-1ZM1285.5 66q1 .5 0 1-1-.5 0-1ZM795.5 67q1 .5 0 1-1-.5 0-1ZM982.5 67q1 .5 0 1-1-.5 0-1ZM1182.5 67q1 .5 0 1-1-.5 0-1ZM1450.5 67q1 .5 0 1-1-.5 0-1ZM69.5 68q1 .5 0 1-1-.5 0-1ZM1017.5 68q1 .5 0 1-1-.5 0-1ZM1284.5 68q1 .5 0 1-1-.5 0-1ZM235.5 69q1 .5 0 1-1-.5 0-1ZM501.5 69q1 .5 0 1-1-.5 0-1ZM629.5 69q1 .5 0 1-1-.5 0-1ZM1449.5 69q1 .5 0 1-1-.5 0-1ZM70.5 70q1 .5 0 1-1-.5 0-1ZM794.5 70q1 .5 0 1-1-.5 0-1ZM335.5 71q1 .5 0 1-1-.5 0-1ZM628.5 71q1 .5 0 1-1-.5 0-1ZM815.5 71q1 .5 0 1-1-.5 0-1ZM793.5 72q1 .5 0 1-1-.5 0-1ZM980.5 72q1 .5 0 1-1-.5 0-1ZM1184.5 72q1 .5 0 1-1-.5 0-1ZM1448.5 72q1 .5 0 1-1-.5 0-1ZM1019.5 73q1 .5 0 1-1-.5 0-1ZM1282.5 73q1 .5 0 1-1-.5 0-1ZM237.5 74q1 .5 0 1-1-.5 0-1ZM499.5 74q1 .5 0 1-1-.5 0-1ZM1185.5 74q1 .5 0 1-1-.5 0-1ZM1447.5 74q1 .5 0 1-1-.5 0-1ZM72.5 75q1 .5 0 1-1-.5 0-1ZM792.5 75q1 .5 0 1-1-.5 0-1ZM333.5 76q1 .5 0 1-1-.5 0-1ZM626.5 76q1 .5 0 1-1-.5 0-1ZM813.5 76q1 .5 0 1-1-.5 0-1ZM791.5 77q1 .5 0 1-1-.5 0-1ZM978.5 77q1 .5 0 1-1-.5 0-1ZM1186.5 77q1 .5 0 1-1-.5 0-1ZM1021.5 78q1 .5 0 1-1-.5 0-1ZM1280.5 78q1 .5 0 1-1-.5 0-1ZM239.5 79q1 .5 0 1-1-.5 0-1ZM497.5 79q1 .5 0 1-1-.5 0-1ZM1187.5 79q1 .5 0 1-1-.5 0-1ZM1445.5 79q1 .5 0 1-1-.5 0-1ZM74.5 80q1 .5 0 1-1-.5 0-1ZM1022.5 80q1 .5 0 1-1-.5 0-1ZM331.5 81q1 .5 0 1-1-.5 0-1ZM624.5 81q1 .5 0 1-1-.5 0-1ZM811.5 81q1 .5 0 1-1-.5 0-1ZM789.5 82q1 .5 0 1-1-.5 0-1ZM976.5 82q1 .5 0 1-1-.5 0-1ZM330.5 83q1 .5 0 1-1-.5 0-1ZM810.5 83q1 .5 0 1-1-.5 0-1ZM1023.5 83q1 .5 0 1-1-.5 0-1ZM1278.5 83q1 .5 0 1-1-.5 0-1ZM241.5 84q1 .5 0 1-1-.5 0-1ZM495.5 84q1 .5 0 1-1-.5 0-1ZM1189.5 84q1 .5 0 1-1-.5 0-1ZM1443.5 84q1 .5 0 1-1-.5 0-1ZM76.5 85q1 .5 0 1-1-.5 0-1ZM1024.5 85q1 .5 0 1-1-.5 0-1ZM242.5 86q1 .5 0 1-1-.5 0-1ZM329.5 86q1 .5 0 1-1-.5 0-1ZM494.5 86q1 .5 0 1-1-.5 0-1ZM622.5 86q1 .5 0 1-1-.5 0-1ZM809.5 86q1 .5 0 1-1-.5 0-1ZM787.5 87q1 .5 0 1-1-.5 0-1ZM974.5 87q1 .5 0 1-1-.5 0-1ZM328.5 88q1 .5 0 1-1-.5 0-1ZM808.5 88q1 .5 0 1-1-.5 0-1ZM1276.5 88q1 .5 0 1-1-.5 0-1ZM243.5 89q1 .5 0 1-1-.5 0-1ZM493.5 89q1 .5 0 1-1-.5 0-1ZM973.5 89q1 .5 0 1-1-.5 0-1ZM1191.5 89q1 .5 0 1-1-.5 0-1ZM1441.5 89q1 .5 0 1-1-.5 0-1ZM78.5 90q1 .5 0 1-1-.5 0-1ZM1026.5 90q1 .5 0 1-1-.5 0-1ZM244.5 91q1 .5 0 1-1-.5 0-1ZM492.5 91q1 .5 0 1-1-.5 0-1ZM620.5 91q1 .5 0 1-1-.5 0-1ZM79.5 92q1 .5 0 1-1-.5 0-1ZM785.5 92q1 .5 0 1-1-.5 0-1ZM972.5 92q1 .5 0 1-1-.5 0-1ZM326.5 93q1 .5 0 1-1-.5 0-1ZM619.5 93q1 .5 0 1-1-.5 0-1ZM806.5 93q1 .5 0 1-1-.5 0-1ZM1274.5 93q1 .5 0 1-1-.5 0-1ZM971.5 94q1 .5 0 1-1-.5 0-1ZM1193.5 94q1 .5 0 1-1-.5 0-1ZM1439.5 94q1 .5 0 1-1-.5 0-1ZM80.5 95q1 .5 0 1-1-.5 0-1ZM1028.5 95q1 .5 0 1-1-.5 0-1ZM1273.5 95q1 .5 0 1-1-.5 0-1ZM246.5 96q1 .5 0 1-1-.5 0-1ZM490.5 96q1 .5 0 1-1-.5 0-1ZM618.5 96q1 .5 0 1-1-.5 0-1ZM81.5 97q1 .5 0 1-1-.5 0-1ZM783.5 97q1 .5 0 1-1-.5 0-1ZM324.5 98q1 .5 0 1-1-.5 0-1ZM617.5 98q1 .5 0 1-1-.5 0-1ZM804.5 98q1 .5 0 1-1-.5 0-1ZM1272.5 98q1 .5 0 1-1-.5 0-1ZM782.5 99q1 .5 0 1-1-.5 0-1ZM969.5 99q1 .5 0 1-1-.5 0-1ZM1195.5 99q1 .5 0 1-1-.5 0-1ZM1437.5 99q1 .5 0 1-1-.5 0-1ZM1030.5 100q1 .5 0 1-1-.5 0-1ZM1271.5 100q1 .5 0 1-1-.5 0-1ZM248.5 101q1 .5 0 1-1-.5 0-1ZM488.5 101q1 .5 0 1-1-.5 0-1ZM1436.5 101q1 .5 0 1-1-.5 0-1ZM83.5 102q1 .5 0 1-1-.5 0-1ZM781.5 102q1 .5 0 1-1-.5 0-1ZM322.5 103q1 .5 0 1-1-.5 0-1ZM615.5 103q1 .5 0 1-1-.5 0-1ZM802.5 103q1 .5 0 1-1-.5 0-1ZM780.5 104q1 .5 0 1-1-.5 0-1ZM967.5 104q1 .5 0 1-1-.5 0-1ZM1197.5 104q1 .5 0 1-1-.5 0-1ZM1435.5 104q1 .5 0 1-1-.5 0-1ZM1032.5 105q1 .5 0 1-1-.5 0-1ZM1269.5 105q1 .5 0 1-1-.5 0-1ZM250.5 106q1 .5 0 1-1-.5 0-1ZM486.5 106q1 .5 0 1-1-.5 0-1ZM1198.5 106q1 .5 0 1-1-.5 0-1ZM1434.5 106q1 .5 0 1-1-.5 0-1ZM85.5 107q1 .5 0 1-1-.5 0-1ZM320.5 108q1 .5 0 1-1-.5 0-1ZM613.5 108q1 .5 0 1-1-.5 0-1ZM800.5 108q1 .5 0 1-1-.5 0-1ZM778.5 109q1 .5 0 1-1-.5 0-1ZM965.5 109q1 .5 0 1-1-.5 0-1ZM1199.5 109q1 .5 0 1-1-.5 0-1ZM319.5 110q1 .5 0 1-1-.5 0-1ZM799.5 110q1 .5 0 1-1-.5 0-1ZM1034.5 110q1 .5 0 1-1-.5 0-1ZM1267.5 110q1 .5 0 1-1-.5 0-1ZM252.5 111q1 .5 0 1-1-.5 0-1ZM484.5 111q1 .5 0 1-1-.5 0-1ZM1200.5 111q1 .5 0 1-1-.5 0-1ZM1432.5 111q1 .5 0 1-1-.5 0-1ZM87.5 112q1 .5 0 1-1-.5 0-1ZM1035.5 112q1 .5 0 1-1-.5 0-1ZM318.5 113q1 .5 0 1-1-.5 0-1ZM483.5 113q1 .5 0 1-1-.5 0-1ZM611.5 113q1 .5 0 1-1-.5 0-1ZM798.5 113q1 .5 0 1-1-.5 0-1ZM776.5 114q1 .5 0 1-1-.5 0-1ZM963.5 114q1 .5 0 1-1-.5 0-1ZM317.5 115q1 .5 0 1-1-.5 0-1ZM797.5 115q1 .5 0 1-1-.5 0-1ZM1036.5 115q1 .5 0 1-1-.5 0-1ZM1265.5 115q1 .5 0 1-1-.5 0-1ZM254.5 116q1 .5 0 1-1-.5 0-1ZM482.5 116q1 .5 0 1-1-.5 0-1ZM962.5 116q1 .5 0 1-1-.5 0-1ZM1202.5 116q1 .5 0 1-1-.5 0-1ZM1430.5 116q1 .5 0 1-1-.5 0-1ZM89.5 117q1 .5 0 1-1-.5 0-1ZM1037.5 117q1 .5 0 1-1-.5 0-1ZM255.5 118q1 .5 0 1-1-.5 0-1ZM316.5 118q1 .5 0 1-1-.5 0-1ZM481.5 118q1 .5 0 1-1-.5 0-1ZM609.5 118q1 .5 0 1-1-.5 0-1ZM796.5 118q1 .5 0 1-1-.5 0-1ZM774.5 119q1 .5 0 1-1-.5 0-1ZM961.5 119q1 .5 0 1-1-.5 0-1ZM315.5 120q1 .5 0 1-1-.5 0-1ZM795.5 120q1 .5 0 1-1-.5 0-1ZM1263.5 120q1 .5 0 1-1-.5 0-1ZM256.5 121q1 .5 0 1-1-.5 0-1ZM480.5 121q1 .5 0 1-1-.5 0-1ZM960.5 121q1 .5 0 1-1-.5 0-1ZM1204.5 121q1 .5 0 1-1-.5 0-1ZM1428.5 121q1 .5 0 1-1-.5 0-1ZM91.5 122q1 .5 0 1-1-.5 0-1ZM1039.5 122q1 .5 0 1-1-.5 0-1ZM1262.5 122q1 .5 0 1-1-.5 0-1ZM257.5 123q1 .5 0 1-1-.5 0-1ZM479.5 123q1 .5 0 1-1-.5 0-1ZM607.5 123q1 .5 0 1-1-.5 0-1ZM92.5 124q1 .5 0 1-1-.5 0-1ZM772.5 124q1 .5 0 1-1-.5 0-1ZM959.5 124q1 .5 0 1-1-.5 0-1ZM313.5 125q1 .5 0 1-1-.5 0-1ZM606.5 125q1 .5 0 1-1-.5 0-1ZM793.5 125q1 .5 0 1-1-.5 0-1ZM1261.5 125q1 .5 0 1-1-.5 0-1ZM958.5 126q1 .5 0 1-1-.5 0-1ZM1206.5 126q1 .5 0 1-1-.5 0-1ZM1426.5 126q1 .5 0 1-1-.5 0-1ZM93.5 127q1 .5 0 1-1-.5 0-1ZM1041.5 127q1 .5 0 1-1-.5 0-1ZM1260.5 127q1 .5 0 1-1-.5 0-1ZM259.5 128q1 .5 0 1-1-.5 0-1ZM477.5 128q1 .5 0 1-1-.5 0-1ZM605.5 128q1 .5 0 1-1-.5 0-1ZM1425.5 128q1 .5 0 1-1-.5 0-1ZM94.5 129q1 .5 0 1-1-.5 0-1ZM770.5 129q1 .5 0 1-1-.5 0-1ZM311.5 130q1 .5 0 1-1-.5 0-1ZM604.5 130q1 .5 0 1-1-.5 0-1ZM791.5 130q1 .5 0 1-1-.5 0-1ZM1259.5 130q1 .5 0 1-1-.5 0-1ZM769.5 131q1 .5 0 1-1-.5 0-1ZM956.5 131q1 .5 0 1-1-.5 0-1ZM1208.5 131q1 .5 0 1-1-.5 0-1ZM1424.5 131q1 .5 0 1-1-.5 0-1ZM1043.5 132q1 .5 0 1-1-.5 0-1ZM1258.5 132q1 .5 0 1-1-.5 0-1ZM261.5 133q1 .5 0 1-1-.5 0-1ZM475.5 133q1 .5 0 1-1-.5 0-1ZM1209.5 133q1 .5 0 1-1-.5 0-1ZM1423.5 133q1 .5 0 1-1-.5 0-1ZM96.5 134q1 .5 0 1-1-.5 0-1ZM768.5 134q1 .5 0 1-1-.5 0-1ZM309.5 135q1 .5 0 1-1-.5 0-1ZM602.5 135q1 .5 0 1-1-.5 0-1ZM789.5 135q1 .5 0 1-1-.5 0-1ZM474.5 136q1 .5 0 1-1-.5 0-1ZM767.5 136q1 .5 0 1-1-.5 0-1ZM954.5 136q1 .5 0 1-1-.5 0-1ZM1210.5 136q1 .5 0 1-1-.5 0-1ZM1422.5 136q1 .5 0 1-1-.5 0-1ZM1045.5 137q1 .5 0 1-1-.5 0-1ZM1256.5 137q1 .5 0 1-1-.5 0-1ZM263.5 138q1 .5 0 1-1-.5 0-1ZM1211.5 138q1 .5 0 1-1-.5 0-1ZM1421.5 138q1 .5 0 1-1-.5 0-1ZM98.5 139q1 .5 0 1-1-.5 0-1ZM1046.5 139q1 .5 0 1-1-.5 0-1ZM307.5 140q1 .5 0 1-1-.5 0-1ZM600.5 140q1 .5 0 1-1-.5 0-1ZM787.5 140q1 .5 0 1-1-.5 0-1ZM472.5 141q1 .5 0 1-1-.5 0-1ZM765.5 141q1 .5 0 1-1-.5 0-1ZM952.5 141q1 .5 0 1-1-.5 0-1ZM1212.5 141q1 .5 0 1-1-.5 0-1ZM306.5 142q1 .5 0 1-1-.5 0-1ZM786.5 142q1 .5 0 1-1-.5 0-1ZM1047.5 142q1 .5 0 1-1-.5 0-1ZM1254.5 142q1 .5 0 1-1-.5 0-1ZM265.5 143q1 .5 0 1-1-.5 0-1ZM1213.5 143q1 .5 0 1-1-.5 0-1ZM1419.5 143q1 .5 0 1-1-.5 0-1ZM100.5 144q1 .5 0 1-1-.5 0-1ZM1048.5 144q1 .5 0 1-1-.5 0-1ZM266.5 145q1 .5 0 1-1-.5 0-1ZM305.5 145q1 .5 0 1-1-.5 0-1ZM598.5 145q1 .5 0 1-1-.5 0-1ZM785.5 145q1 .5 0 1-1-.5 0-1ZM470.5 146q1 .5 0 1-1-.5 0-1ZM763.5 146q1 .5 0 1-1-.5 0-1ZM950.5 146q1 .5 0 1-1-.5 0-1ZM304.5 147q1 .5 0 1-1-.5 0-1ZM784.5 147q1 .5 0 1-1-.5 0-1ZM1049.5 147q1 .5 0 1-1-.5 0-1ZM1252.5 147q1 .5 0 1-1-.5 0-1ZM267.5 148q1 .5 0 1-1-.5 0-1ZM469.5 148q1 .5 0 1-1-.5 0-1ZM949.5 148q1 .5 0 1-1-.5 0-1ZM1215.5 148q1 .5 0 1-1-.5 0-1ZM1417.5 148q1 .5 0 1-1-.5 0-1ZM102.5 149q1 .5 0 1-1-.5 0-1ZM1050.5 149q1 .5 0 1-1-.5 0-1ZM268.5 150q1 .5 0 1-1-.5 0-1ZM596.5 150q1 .5 0 1-1-.5 0-1ZM103.5 151q1 .5 0 1-1-.5 0-1ZM468.5 151q1 .5 0 1-1-.5 0-1ZM761.5 151q1 .5 0 1-1-.5 0-1ZM948.5 151q1 .5 0 1-1-.5 0-1ZM302.5 152q1 .5 0 1-1-.5 0-1ZM595.5 152q1 .5 0 1-1-.5 0-1ZM782.5 152q1 .5 0 1-1-.5 0-1ZM1250.5 152q1 .5 0 1-1-.5 0-1ZM269.5 153q1 .5 0 1-1-.5 0-1ZM467.5 153q1 .5 0 1-1-.5 0-1ZM947.5 153q1 .5 0 1-1-.5 0-1ZM1217.5 153q1 .5 0 1-1-.5 0-1ZM1415.5 153q1 .5 0 1-1-.5 0-1ZM104.5 154q1 .5 0 1-1-.5 0-1ZM1052.5 154q1 .5 0 1-1-.5 0-1ZM1249.5 154q1 .5 0 1-1-.5 0-1ZM270.5 155q1 .5 0 1-1-.5 0-1ZM594.5 155q1 .5 0 1-1-.5 0-1ZM105.5 156q1 .5 0 1-1-.5 0-1ZM759.5 156q1 .5 0 1-1-.5 0-1ZM300.5 157q1 .5 0 1-1-.5 0-1ZM593.5 157q1 .5 0 1-1-.5 0-1ZM780.5 157q1 .5 0 1-1-.5 0-1ZM1248.5 157q1 .5 0 1-1-.5 0-1ZM465.5 158q1 .5 0 1-1-.5 0-1ZM758.5 158q1 .5 0 1-1-.5 0-1ZM945.5 158q1 .5 0 1-1-.5 0-1ZM1219.5 158q1 .5 0 1-1-.5 0-1ZM1413.5 158q1 .5 0 1-1-.5 0-1ZM106.5 159q1 .5 0 1-1-.5 0-1ZM1054.5 159q1 .5 0 1-1-.5 0-1ZM1247.5 159q1 .5 0 1-1-.5 0-1ZM272.5 160q1 .5 0 1-1-.5 0-1ZM592.5 160q1 .5 0 1-1-.5 0-1ZM1412.5 160q1 .5 0 1-1-.5 0-1ZM107.5 161q1 .5 0 1-1-.5 0-1ZM757.5 161q1 .5 0 1-1-.5 0-1ZM298.5 162q1 .5 0 1-1-.5 0-1ZM591.5 162q1 .5 0 1-1-.5 0-1ZM778.5 162q1 .5 0 1-1-.5 0-1ZM463.5 163q1 .5 0 1-1-.5 0-1ZM756.5 163q1 .5 0 1-1-.5 0-1ZM943.5 163q1 .5 0 1-1-.5 0-1ZM1221.5 163q1 .5 0 1-1-.5 0-1ZM1411.5 163q1 .5 0 1-1-.5 0-1ZM1056.5 164q1 .5 0 1-1-.5 0-1ZM1245.5 164q1 .5 0 1-1-.5 0-1ZM274.5 165q1 .5 0 1-1-.5 0-1ZM1222.5 165q1 .5 0 1-1-.5 0-1ZM1410.5 165q1 .5 0 1-1-.5 0-1ZM109.5 166q1 .5 0 1-1-.5 0-1ZM755.5 166q1 .5 0 1-1-.5 0-1ZM296.5 167q1 .5 0 1-1-.5 0-1ZM589.5 167q1 .5 0 1-1-.5 0-1ZM776.5 167q1 .5 0 1-1-.5 0-1ZM461.5 168q1 .5 0 1-1-.5 0-1ZM754.5 168q1 .5 0 1-1-.5 0-1ZM941.5 168q1 .5 0 1-1-.5 0-1ZM1223.5 168q1 .5 0 1-1-.5 0-1ZM1058.5 169q1 .5 0 1-1-.5 0-1ZM1243.5 169q1 .5 0 1-1-.5 0-1ZM276.5 170q1 .5 0 1-1-.5 0-1ZM1224.5 170q1 .5 0 1-1-.5 0-1ZM1408.5 170q1 .5 0 1-1-.5 0-1ZM111.5 171q1 .5 0 1-1-.5 0-1ZM1059.5 171q1 .5 0 1-1-.5 0-1ZM294.5 172q1 .5 0 1-1-.5 0-1ZM587.5 172q1 .5 0 1-1-.5 0-1ZM774.5 172q1 .5 0 1-1-.5 0-1ZM459.5 173q1 .5 0 1-1-.5 0-1ZM752.5 173q1 .5 0 1-1-.5 0-1ZM939.5 173q1 .5 0 1-1-.5 0-1ZM293.5 174q1 .5 0 1-1-.5 0-1ZM773.5 174q1 .5 0 1-1-.5 0-1ZM1060.5 174q1 .5 0 1-1-.5 0-1ZM1241.5 174q1 .5 0 1-1-.5 0-1ZM278.5 175q1 .5 0 1-1-.5 0-1ZM1226.5 175q1 .5 0 1-1-.5 0-1ZM1406.5 175q1 .5 0 1-1-.5 0-1ZM113.5 176q1 .5 0 1-1-.5 0-1ZM1061.5 176q1 .5 0 1-1-.5 0-1ZM279.5 177q1 .5 0 1-1-.5 0-1ZM292.5 177q1 .5 0 1-1-.5 0-1ZM585.5 177q1 .5 0 1-1-.5 0-1ZM772.5 177q1 .5 0 1-1-.5 0-1ZM457.5 178q1 .5 0 1-1-.5 0-1ZM750.5 178q1 .5 0 1-1-.5 0-1ZM937.5 178q1 .5 0 1-1-.5 0-1ZM291.5 179q1 .5 0 1-1-.5 0-1ZM771.5 179q1 .5 0 1-1-.5 0-1ZM1239.5 179q1 .5 0 1-1-.5 0-1ZM280.5 180q1 .5 0 1-1-.5 0-1ZM456.5 180q1 .5 0 1-1-.5 0-1ZM936.5 180q1 .5 0 1-1-.5 0-1ZM1228.5 180q1 .5 0 1-1-.5 0-1ZM1404.5 180q1 .5 0 1-1-.5 0-1ZM115.5 181q1 .5 0 1-1-.5 0-1ZM1063.5 181q1 .5 0 1-1-.5 0-1ZM281.5 182q1 .5 0 1-1-.5 0-1ZM583.5 182q1 .5 0 1-1-.5 0-1ZM116.5 183q1 .5 0 1-1-.5 0-1ZM455.5 183q1 .5 0 1-1-.5 0-1ZM748.5 183q1 .5 0 1-1-.5 0-1ZM935.5 183q1 .5 0 1-1-.5 0-1ZM289.5 184q1 .5 0 1-1-.5 0-1ZM582.5 184q1 .5 0 1-1-.5 0-1ZM769.5 184q1 .5 0 1-1-.5 0-1ZM1237.5 184q1 .5 0 1-1-.5 0-1ZM454.5 185q1 .5 0 1-1-.5 0-1ZM934.5 185q1 .5 0 1-1-.5 0-1ZM1230.5 185q1 .5 0 1-1-.5 0-1ZM1402.5 185q1 .5 0 1-1-.5 0-1ZM117.5 186q1 .5 0 1-1-.5 0-1ZM1065.5 186q1 .5 0 1-1-.5 0-1ZM1236.5 186q1 .5 0 1-1-.5 0-1ZM283.5 187q1 .5 0 1-1-.5 0-1ZM581.5 187q1 .5 0 1-1-.5 0-1ZM118.5 188q1 .5 0 1-1-.5 0-1ZM746.5 188q1 .5 0 1-1-.5 0-1ZM287.5 189q1 .5 0 1-1-.5 0-1ZM580.5 189q1 .5 0 1-1-.5 0-1ZM767.5 189q1 .5 0 1-1-.5 0-1ZM1235.5 189q1 .5 0 1-1-.5 0-1ZM452.5 190q1 .5 0 1-1-.5 0-1ZM745.5 190q1 .5 0 1-1-.5 0-1ZM932.5 190q1 .5 0 1-1-.5 0-1ZM1232.5 190q1 .5 0 1-1-.5 0-1ZM1400.5 190q1 .5 0 1-1-.5 0-1ZM119.5 191q1 .5 0 1-1-.5 0-1ZM1067.5 191q.8.3.5 1.5-.5 1-1 0-.2-1.2.5-1.5ZM1234.5 191q.8.3.5 1.5-.5 1-1 0-.2-1.2.5-1.5ZM286.5 192q1 .5 0 1-1-.5 0-1ZM766.5 192q1 .5 0 1-1-.5 0-1ZM119.5 193q1 .5 0 1-1-.5 0-1ZM452.5 193q1 .5 0 1-1-.5 0-1ZM744.5 193q1 .5 0 1-1-.5 0-1ZM932.5 193q1 .5 0 1-1-.5 0-1ZM284.5 194q1 .5 0 1-1-.5 0-1ZM287.5 194q1 .5 0 1-1-.5 0-1ZM578.5 194q1 .5 0 1-1-.5 0-1ZM118.5 195q1 .5 0 1-1-.5 0-1ZM743.5 195q1 .5 0 1-1-.5 0-1ZM1066.5 195q1 .5 0 1-1-.5 0-1ZM1235.5 195q1 .5 0 1-1-.5 0-1ZM283.5 196q1 .5 0 1-1-.5 0-1ZM453.5 196q1 .5 0 1-1-.5 0-1ZM933.5 196q1 .5 0 1-1-.5 0-1ZM1231.5 196q1 .5 0 1-1-.5 0-1ZM1401.5 196q1 .5 0 1-1-.5 0-1ZM288.5 197q1 .5 0 1-1-.5 0-1ZM768.5 197q1 .5 0 1-1-.5 0-1ZM1065.5 197q1 .5 0 1-1-.5 0-1ZM1236.5 197q1 .5 0 1-1-.5 0-1ZM454.5 198q1 .5 0 1-1-.5 0-1ZM934.5 198q1 .5 0 1-1-.5 0-1ZM282.5 199q1 .5 0 1-1-.5 0-1ZM289.5 199q1 .5 0 1-1-.5 0-1ZM576.5 199q1 .5 0 1-1-.5 0-1ZM769.5 199q1 .5 0 1-1-.5 0-1ZM116.5 200q1 .5 0 1-1-.5 0-1ZM741.5 200q1 .5 0 1-1-.5 0-1ZM1064.5 200q1 .5 0 1-1-.5 0-1ZM281.5 201q1 .5 0 1-1-.5 0-1ZM1229.5 201q1 .5 0 1-1-.5 0-1ZM1403.5 201q1 .5 0 1-1-.5 0-1ZM290.5 202q1 .5 0 1-1-.5 0-1ZM770.5 202q1 .5 0 1-1-.5 0-1ZM1063.5 202q1 .5 0 1-1-.5 0-1ZM1238.5 202q1 .5 0 1-1-.5 0-1ZM456.5 203q1 .5 0 1-1-.5 0-1ZM936.5 203q1 .5 0 1-1-.5 0-1ZM1228.5 203q1 .5 0 1-1-.5 0-1ZM291.5 204q1 .5 0 1-1-.5 0-1ZM574.5 204q1 .5 0 1-1-.5 0-1ZM771.5 204q1 .5 0 1-1-.5 0-1ZM114.5 205q1 .5 0 1-1-.5 0-1ZM739.5 205q1 .5 0 1-1-.5 0-1ZM279.5 206q1 .5 0 1-1-.5 0-1ZM1227.5 206q1 .5 0 1-1-.5 0-1ZM1405.5 206q1 .5 0 1-1-.5 0-1ZM1061.5 207q1 .5 0 1-1-.5 0-1ZM1240.5 207q1 .5 0 1-1-.5 0-1ZM458.5 208q1 .5 0 1-1-.5 0-1ZM938.5 208q1 .5 0 1-1-.5 0-1ZM1226.5 208q1 .5 0 1-1-.5 0-1ZM1406.5 208q1 .5 0 1-1-.5 0-1ZM293.5 209q1 .5 0 1-1-.5 0-1ZM572.5 209q1 .5 0 1-1-.5 0-1ZM773.5 209q1 .5 0 1-1-.5 0-1ZM112.5 210q1 .5 0 1-1-.5 0-1ZM737.5 210q1 .5 0 1-1-.5 0-1ZM277.5 211q1 .5 0 1-1-.5 0-1ZM1225.5 211q1 .5 0 1-1-.5 0-1ZM1407.5 211q1 .5 0 1-1-.5 0-1ZM1059.5 212q1 .5 0 1-1-.5 0-1ZM1242.5 212q1 .5 0 1-1-.5 0-1ZM460.5 213q1 .5 0 1-1-.5 0-1ZM940.5 213q1 .5 0 1-1-.5 0-1ZM1224.5 213q1 .5 0 1-1-.5 0-1ZM1408.5 213q1 .5 0 1-1-.5 0-1ZM295.5 214q1 .5 0 1-1-.5 0-1ZM570.5 214q1 .5 0 1-1-.5 0-1ZM775.5 214q1 .5 0 1-1-.5 0-1ZM1243.5 214q1 .5 0 1-1-.5 0-1ZM110.5 215q1 .5 0 1-1-.5 0-1ZM735.5 215q1 .5 0 1-1-.5 0-1ZM275.5 216q1 .5 0 1-1-.5 0-1ZM569.5 216q1 .5 0 1-1-.5 0-1ZM109.5 217q1 .5 0 1-1-.5 0-1ZM1057.5 217q1 .5 0 1-1-.5 0-1ZM1244.5 217q1 .5 0 1-1-.5 0-1ZM462.5 218q1 .5 0 1-1-.5 0-1ZM942.5 218q1 .5 0 1-1-.5 0-1ZM1222.5 218q1 .5 0 1-1-.5 0-1ZM1410.5 218q1 .5 0 1-1-.5 0-1ZM297.5 219q1 .5 0 1-1-.5 0-1ZM568.5 219q1 .5 0 1-1-.5 0-1ZM777.5 219q1 .5 0 1-1-.5 0-1ZM1245.5 219q1 .5 0 1-1-.5 0-1ZM108.5 220q1 .5 0 1-1-.5 0-1ZM463.5 220q1 .5 0 1-1-.5 0-1ZM733.5 220q1 .5 0 1-1-.5 0-1ZM943.5 220q1 .5 0 1-1-.5 0-1ZM273.5 221q1 .5 0 1-1-.5 0-1ZM567.5 221q1 .5 0 1-1-.5 0-1ZM107.5 222q1 .5 0 1-1-.5 0-1ZM732.5 222q1 .5 0 1-1-.5 0-1ZM1055.5 222q1 .5 0 1-1-.5 0-1ZM272.5 223q1 .5 0 1-1-.5 0-1ZM464.5 223q1 .5 0 1-1-.5 0-1ZM944.5 223q1 .5 0 1-1-.5 0-1ZM1220.5 223q1 .5 0 1-1-.5 0-1ZM1412.5 223q1 .5 0 1-1-.5 0-1ZM299.5 224q1 .5 0 1-1-.5 0-1ZM779.5 224q1 .5 0 1-1-.5 0-1ZM1247.5 224q1 .5 0 1-1-.5 0-1ZM465.5 225q1 .5 0 1-1-.5 0-1ZM731.5 225q1 .5 0 1-1-.5 0-1ZM945.5 225q1 .5 0 1-1-.5 0-1ZM271.5 226q1 .5 0 1-1-.5 0-1ZM300.5 226q1 .5 0 1-1-.5 0-1ZM565.5 226q1 .5 0 1-1-.5 0-1ZM780.5 226q1 .5 0 1-1-.5 0-1ZM105.5 227q1 .5 0 1-1-.5 0-1ZM730.5 227q1 .5 0 1-1-.5 0-1ZM1053.5 227q1 .5 0 1-1-.5 0-1ZM270.5 228q1 .5 0 1-1-.5 0-1ZM1218.5 228q1 .5 0 1-1-.5 0-1ZM1414.5 228q1 .5 0 1-1-.5 0-1ZM301.5 229q1 .5 0 1-1-.5 0-1ZM781.5 229q1 .5 0 1-1-.5 0-1ZM1052.5 229q1 .5 0 1-1-.5 0-1ZM1249.5 229q1 .5 0 1-1-.5 0-1ZM467.5 230q1 .5 0 1-1-.5 0-1ZM947.5 230q1 .5 0 1-1-.5 0-1ZM302.5 231q1 .5 0 1-1-.5 0-1ZM563.5 231q1 .5 0 1-1-.5 0-1ZM782.5 231q1 .5 0 1-1-.5 0-1ZM103.5 232q1 .5 0 1-1-.5 0-1ZM728.5 232q1 .5 0 1-1-.5 0-1ZM1051.5 232q1 .5 0 1-1-.5 0-1ZM268.5 233q1 .5 0 1-1-.5 0-1ZM1216.5 233q1 .5 0 1-1-.5 0-1ZM1416.5 233q1 .5 0 1-1-.5 0-1ZM783.5 234q1 .5 0 1-1-.5 0-1ZM1050.5 234q1 .5 0 1-1-.5 0-1ZM1251.5 234q1 .5 0 1-1-.5 0-1ZM469.5 235q1 .5 0 1-1-.5 0-1ZM949.5 235q1 .5 0 1-1-.5 0-1ZM1215.5 235q1 .5 0 1-1-.5 0-1ZM304.5 236q1 .5 0 1-1-.5 0-1ZM561.5 236q1 .5 0 1-1-.5 0-1ZM784.5 236q1 .5 0 1-1-.5 0-1ZM101.5 237q1 .5 0 1-1-.5 0-1ZM726.5 237q1 .5 0 1-1-.5 0-1ZM266.5 238q1 .5 0 1-1-.5 0-1ZM1214.5 238q1 .5 0 1-1-.5 0-1ZM1418.5 238q1 .5 0 1-1-.5 0-1ZM1048.5 239q1 .5 0 1-1-.5 0-1ZM1253.5 239q1 .5 0 1-1-.5 0-1ZM471.5 240q1 .5 0 1-1-.5 0-1ZM951.5 240q1 .5 0 1-1-.5 0-1ZM1213.5 240q1 .5 0 1-1-.5 0-1ZM1419.5 240q1 .5 0 1-1-.5 0-1ZM306.5 241q1 .5 0 1-1-.5 0-1ZM559.5 241q1 .5 0 1-1-.5 0-1ZM786.5 241q1 .5 0 1-1-.5 0-1ZM99.5 242q1 .5 0 1-1-.5 0-1ZM724.5 242q1 .5 0 1-1-.5 0-1ZM264.5 243q1 .5 0 1-1-.5 0-1ZM558.5 243q1 .5 0 1-1-.5 0-1ZM1420.5 243q1 .5 0 1-1-.5 0-1ZM98.5 244q1 .5 0 1-1-.5 0-1ZM1046.5 244q1 .5 0 1-1-.5 0-1ZM1255.5 244q1 .5 0 1-1-.5 0-1ZM473.5 245q1 .5 0 1-1-.5 0-1ZM953.5 245q1 .5 0 1-1-.5 0-1ZM1211.5 245q1 .5 0 1-1-.5 0-1ZM1421.5 245q1 .5 0 1-1-.5 0-1ZM308.5 246q1 .5 0 1-1-.5 0-1ZM557.5 246q1 .5 0 1-1-.5 0-1ZM788.5 246q1 .5 0 1-1-.5 0-1ZM1256.5 246q1 .5 0 1-1-.5 0-1ZM97.5 247q1 .5 0 1-1-.5 0-1ZM722.5 247q1 .5 0 1-1-.5 0-1ZM262.5 248q1 .5 0 1-1-.5 0-1ZM556.5 248q1 .5 0 1-1-.5 0-1ZM96.5 249q1 .5 0 1-1-.5 0-1ZM721.5 249q1 .5 0 1-1-.5 0-1ZM1044.5 249q1 .5 0 1-1-.5 0-1ZM1257.5 249q1 .5 0 1-1-.5 0-1ZM955.5 250q1 .5 0 1-1-.5 0-1ZM1209.5 250q1 .5 0 1-1-.5 0-1ZM1423.5 250q1 .5 0 1-1-.5 0-1ZM310.5 251q1 .5 0 1-1-.5 0-1ZM555.5 251q1 .5 0 1-1-.5 0-1ZM790.5 251q1 .5 0 1-1-.5 0-1ZM1258.5 251q1 .5 0 1-1-.5 0-1ZM95.5 252q1 .5 0 1-1-.5 0-1ZM720.5 252q1 .5 0 1-1-.5 0-1ZM956.5 252q1 .5 0 1-1-.5 0-1ZM260.5 253q1 .5 0 1-1-.5 0-1ZM476.5 253q1 .5 0 1-1-.5 0-1ZM554.5 253q1 .5 0 1-1-.5 0-1ZM94.5 254q1 .5 0 1-1-.5 0-1ZM719.5 254q1 .5 0 1-1-.5 0-1ZM1042.5 254q1 .5 0 1-1-.5 0-1ZM259.5 255q1 .5 0 1-1-.5 0-1ZM477.5 255q1 .5 0 1-1-.5 0-1ZM957.5 255q1 .5 0 1-1-.5 0-1ZM1207.5 255q1 .5 0 1-1-.5 0-1ZM1425.5 255q1 .5 0 1-1-.5 0-1ZM312.5 256q1 .5 0 1-1-.5 0-1ZM792.5 256q1 .5 0 1-1-.5 0-1ZM1041.5 256q1 .5 0 1-1-.5 0-1ZM1260.5 256q1 .5 0 1-1-.5 0-1ZM718.5 257q1 .5 0 1-1-.5 0-1ZM958.5 257q1 .5 0 1-1-.5 0-1ZM258.5 258q1 .5 0 1-1-.5 0-1ZM313.5 258q1 .5 0 1-1-.5 0-1ZM478.5 258q1 .5 0 1-1-.5 0-1ZM552.5 258q1 .5 0 1-1-.5 0-1ZM793.5 258q1 .5 0 1-1-.5 0-1ZM92.5 259q1 .5 0 1-1-.5 0-1ZM717.5 259q1 .5 0 1-1-.5 0-1ZM1040.5 259q1 .5 0 1-1-.5 0-1ZM257.5 260q1 .5 0 1-1-.5 0-1ZM479.5 260q1 .5 0 1-1-.5 0-1ZM1205.5 260q1 .5 0 1-1-.5 0-1ZM1427.5 260q1 .5 0 1-1-.5 0-1ZM314.5 261q1 .5 0 1-1-.5 0-1ZM794.5 261q1 .5 0 1-1-.5 0-1ZM1039.5 261q1 .5 0 1-1-.5 0-1ZM1262.5 261q1 .5 0 1-1-.5 0-1ZM960.5 262q1 .5 0 1-1-.5 0-1ZM1204.5 262q1 .5 0 1-1-.5 0-1ZM315.5 263q1 .5 0 1-1-.5 0-1ZM550.5 263q1 .5 0 1-1-.5 0-1ZM795.5 263q1 .5 0 1-1-.5 0-1ZM90.5 264q1 .5 0 1-1-.5 0-1ZM715.5 264q1 .5 0 1-1-.5 0-1ZM1038.5 264q1 .5 0 1-1-.5 0-1ZM255.5 265q1 .5 0 1-1-.5 0-1ZM481.5 265q1 .5 0 1-1-.5 0-1ZM1203.5 265q1 .5 0 1-1-.5 0-1ZM1429.5 265q1 .5 0 1-1-.5 0-1ZM1037.5 266q1 .5 0 1-1-.5 0-1ZM1264.5 266q1 .5 0 1-1-.5 0-1ZM962.5 267q1 .5 0 1-1-.5 0-1ZM1202.5 267q1 .5 0 1-1-.5 0-1ZM1430.5 267q1 .5 0 1-1-.5 0-1ZM317.5 268q1 .5 0 1-1-.5 0-1ZM548.5 268q1 .5 0 1-1-.5 0-1ZM797.5 268q1 .5 0 1-1-.5 0-1ZM88.5 269q1 .5 0 1-1-.5 0-1ZM713.5 269q1 .5 0 1-1-.5 0-1ZM253.5 270q1 .5 0 1-1-.5 0-1ZM483.5 270q1 .5 0 1-1-.5 0-1ZM1201.5 270q1 .5 0 1-1-.5 0-1ZM1431.5 270q1 .5 0 1-1-.5 0-1ZM1035.5 271q1 .5 0 1-1-.5 0-1ZM1266.5 271q1 .5 0 1-1-.5 0-1ZM964.5 272q1 .5 0 1-1-.5 0-1ZM1200.5 272q1 .5 0 1-1-.5 0-1ZM1432.5 272q1 .5 0 1-1-.5 0-1ZM319.5 273q1 .5 0 1-1-.5 0-1ZM546.5 273q1 .5 0 1-1-.5 0-1ZM799.5 273q1 .5 0 1-1-.5 0-1ZM1267.5 273q1 .5 0 1-1-.5 0-1ZM86.5 274q1 .5 0 1-1-.5 0-1ZM711.5 274q1 .5 0 1-1-.5 0-1ZM251.5 275q1 .5 0 1-1-.5 0-1ZM485.5 275q1 .5 0 1-1-.5 0-1ZM545.5 275q1 .5 0 1-1-.5 0-1ZM1433.5 275q1 .5 0 1-1-.5 0-1ZM85.5 276q1 .5 0 1-1-.5 0-1ZM1033.5 276q1 .5 0 1-1-.5 0-1ZM1268.5 276q1 .5 0 1-1-.5 0-1ZM966.5 277q1 .5 0 1-1-.5 0-1ZM1198.5 277q1 .5 0 1-1-.5 0-1ZM1434.5 277q1 .5 0 1-1-.5 0-1ZM321.5 278q1 .5 0 1-1-.5 0-1ZM544.5 278q1 .5 0 1-1-.5 0-1ZM801.5 278q1 .5 0 1-1-.5 0-1ZM1269.5 278q1 .5 0 1-1-.5 0-1ZM84.5 279q1 .5 0 1-1-.5 0-1ZM709.5 279q1 .5 0 1-1-.5 0-1ZM967.5 279q1 .5 0 1-1-.5 0-1ZM249.5 280q1 .5 0 1-1-.5 0-1ZM487.5 280q1 .5 0 1-1-.5 0-1ZM543.5 280q1 .5 0 1-1-.5 0-1ZM83.5 281q1 .5 0 1-1-.5 0-1ZM708.5 281q1 .5 0 1-1-.5 0-1ZM1031.5 281q1 .5 0 1-1-.5 0-1ZM1270.5 281q1 .5 0 1-1-.5 0-1ZM248.5 282q1 .5 0 1-1-.5 0-1ZM488.5 282q1 .5 0 1-1-.5 0-1ZM968.5 282q1 .5 0 1-1-.5 0-1ZM1196.5 282q1 .5 0 1-1-.5 0-1ZM1436.5 282q1 .5 0 1-1-.5 0-1ZM323.5 283q1 .5 0 1-1-.5 0-1ZM803.5 283q1 .5 0 1-1-.5 0-1ZM1271.5 283q1 .5 0 1-1-.5 0-1ZM707.5 284q1 .5 0 1-1-.5 0-1ZM969.5 284q1 .5 0 1-1-.5 0-1ZM247.5 285q1 .5 0 1-1-.5 0-1ZM324.5 285q1 .5 0 1-1-.5 0-1ZM489.5 285q1 .5 0 1-1-.5 0-1ZM541.5 285q1 .5 0 1-1-.5 0-1ZM804.5 285q1 .5 0 1-1-.5 0-1ZM81.5 286q1 .5 0 1-1-.5 0-1ZM706.5 286q1 .5 0 1-1-.5 0-1ZM1029.5 286q1 .5 0 1-1-.5 0-1ZM246.5 287q1 .5 0 1-1-.5 0-1ZM490.5 287q1 .5 0 1-1-.5 0-1ZM970.5 287q1 .5 0 1-1-.5 0-1ZM1194.5 287q1 .5 0 1-1-.5 0-1ZM1438.5 287q1 .5 0 1-1-.5 0-1ZM325.5 288q1 .5 0 1-1-.5 0-1ZM805.5 288q1 .5 0 1-1-.5 0-1ZM1028.5 288q1 .5 0 1-1-.5 0-1ZM1273.5 288q1 .5 0 1-1-.5 0-1ZM971.5 289q1 .5 0 1-1-.5 0-1ZM245.5 290q1 .5 0 1-1-.5 0-1ZM326.5 290q1 .5 0 1-1-.5 0-1ZM491.5 290q1 .5 0 1-1-.5 0-1ZM539.5 290q1 .5 0 1-1-.5 0-1ZM806.5 290q1 .5 0 1-1-.5 0-1ZM79.5 291q1 .5 0 1-1-.5 0-1ZM704.5 291q1 .5 0 1-1-.5 0-1ZM1027.5 291q1 .5 0 1-1-.5 0-1ZM244.5 292q1 .5 0 1-1-.5 0-1ZM492.5 292q1 .5 0 1-1-.5 0-1ZM1192.5 292q1 .5 0 1-1-.5 0-1ZM1440.5 292q1 .5 0 1-1-.5 0-1ZM327.5 293q1 .5 0 1-1-.5 0-1ZM807.5 293q1 .5 0 1-1-.5 0-1ZM1026.5 293q1 .5 0 1-1-.5 0-1ZM1275.5 293q1 .5 0 1-1-.5 0-1ZM973.5 294q1 .5 0 1-1-.5 0-1ZM1191.5 294q1 .5 0 1-1-.5 0-1ZM328.5 295q1 .5 0 1-1-.5 0-1ZM537.5 295q1 .5 0 1-1-.5 0-1ZM808.5 295q1 .5 0 1-1-.5 0-1ZM77.5 296q1 .5 0 1-1-.5 0-1ZM702.5 296q1 .5 0 1-1-.5 0-1ZM242.5 297q1 .5 0 1-1-.5 0-1ZM494.5 297q1 .5 0 1-1-.5 0-1ZM1190.5 297q1 .5 0 1-1-.5 0-1ZM1442.5 297q1 .5 0 1-1-.5 0-1ZM1024.5 298q1 .5 0 1-1-.5 0-1ZM1277.5 298q1 .5 0 1-1-.5 0-1ZM975.5 299q1 .5 0 1-1-.5 0-1ZM1189.5 299q1 .5 0 1-1-.5 0-1ZM1443.5 299q1 .5 0 1-1-.5 0-1ZM330.5 300q1 .5 0 1-1-.5 0-1ZM535.5 300q1 .5 0 1-1-.5 0-1ZM810.5 300q1 .5 0 1-1-.5 0-1ZM75.5 301q1 .5 0 1-1-.5 0-1ZM700.5 301q1 .5 0 1-1-.5 0-1ZM240.5 302q1 .5 0 1-1-.5 0-1ZM496.5 302q1 .5 0 1-1-.5 0-1ZM534.5 302q1 .5 0 1-1-.5 0-1ZM1444.5 302q1 .5 0 1-1-.5 0-1ZM1022.5 303q1 .5 0 1-1-.5 0-1ZM1279.5 303q1 .5 0 1-1-.5 0-1ZM977.5 304q1 .5 0 1-1-.5 0-1ZM1187.5 304q1 .5 0 1-1-.5 0-1ZM1445.5 304q1 .5 0 1-1-.5 0-1ZM332.5 305q1 .5 0 1-1-.5 0-1ZM533.5 305q1 .5 0 1-1-.5 0-1ZM812.5 305q1 .5 0 1-1-.5 0-1ZM1280.5 305q1 .5 0 1-1-.5 0-1ZM73.5 306q1 .5 0 1-1-.5 0-1ZM698.5 306q1 .5 0 1-1-.5 0-1ZM238.5 307q1 .5 0 1-1-.5 0-1ZM498.5 307q1 .5 0 1-1-.5 0-1ZM532.5 307q1 .5 0 1-1-.5 0-1ZM72.5 308q1 .5 0 1-1-.5 0-1ZM1020.5 308q1 .5 0 1-1-.5 0-1ZM1281.5 308q1 .5 0 1-1-.5 0-1ZM979.5 309q1 .5 0 1-1-.5 0-1ZM1185.5 309q1 .5 0 1-1-.5 0-1ZM1447.5 309q1 .5 0 1-1-.5 0-1ZM334.5 310q1 .5 0 1-1-.5 0-1ZM531.5 310q1 .5 0 1-1-.5 0-1ZM814.5 310q1 .5 0 1-1-.5 0-1ZM1282.5 310q1 .5 0 1-1-.5 0-1ZM71.5 311q1 .5 0 1-1-.5 0-1ZM696.5 311q1 .5 0 1-1-.5 0-1ZM980.5 311q1 .5 0 1-1-.5 0-1ZM335.5 312q1 .5 0 1-1-.5 0-1ZM530.5 312q1 .5 0 1-1-.5 0-1ZM815.5 312q1 .5 0 1-1-.5 0-1ZM1283.5 312q1 .5 0 1-1-.5 0-1ZM70.5 313q1 .5 0 1-1-.5 0-1ZM695.5 313q1 .5 0 1-1-.5 0-1ZM981.5 313q1 .5 0 1-1-.5 0-1ZM235.5 314q1 .5 0 1-1-.5 0-1ZM501.5 314q1 .5 0 1-1-.5 0-1ZM529.5 314q1 .5 0 1-1-.5 0-1ZM69.5 315q1 .5 0 1-1-.5 0-1ZM694.5 315q1 .5 0 1-1-.5 0-1ZM1017.5 315q1 .5 0 1-1-.5 0-1ZM234.5 316q1 .5 0 1-1-.5 0-1ZM502.5 316q1 .5 0 1-1-.5 0-1ZM982.5 316q1 .5 0 1-1-.5 0-1ZM1182.5 316q1 .5 0 1-1-.5 0-1ZM1450.5 316q1 .5 0 1-1-.5 0-1ZM337.5 317q1 .5 0 1-1-.5 0-1ZM817.5 317q1 .5 0 1-1-.5 0-1ZM1016.5 317q1 .5 0 1-1-.5 0-1ZM1285.5 317q1 .5 0 1-1-.5 0-1ZM693.5 318q1 .5 0 1-1-.5 0-1ZM983.5 318q1 .5 0 1-1-.5 0-1ZM233.5 319q1 .5 0 1-1-.5 0-1ZM338.5 319q1 .5 0 1-1-.5 0-1ZM503.5 319q1 .5 0 1-1-.5 0-1ZM527.5 319q1 .5 0 1-1-.5 0-1ZM818.5 319q1 .5 0 1-1-.5 0-1ZM67.5 320q1 .5 0 1-1-.5 0-1ZM692.5 320q1 .5 0 1-1-.5 0-1ZM1015.5 320q1 .5 0 1-1-.5 0-1ZM232.5 321q1 .5 0 1-1-.5 0-1ZM504.5 321q1 .5 0 1-1-.5 0-1ZM1180.5 321q1 .5 0 1-1-.5 0-1ZM1452.5 321q1 .5 0 1-1-.5 0-1ZM339.5 322q1 .5 0 1-1-.5 0-1ZM819.5 322q1 .5 0 1-1-.5 0-1ZM1014.5 322q1 .5 0 1-1-.5 0-1ZM1287.5 322q1 .5 0 1-1-.5 0-1ZM985.5 323q1 .5 0 1-1-.5 0-1ZM340.5 324q1 .5 0 1-1-.5 0-1ZM525.5 324q1 .5 0 1-1-.5 0-1ZM820.5 324q1 .5 0 1-1-.5 0-1ZM65.5 325q1 .5 0 1-1-.5 0-1ZM690.5 325q1 .5 0 1-1-.5 0-1ZM1013.5 325q1 .5 0 1-1-.5 0-1ZM230.5 326q1 .5 0 1-1-.5 0-1ZM506.5 326q1 .5 0 1-1-.5 0-1ZM1178.5 326q1 .5 0 1-1-.5 0-1ZM1454.5 326q1 .5 0 1-1-.5 0-1ZM1012.5 327q1 .5 0 1-1-.5 0-1ZM1289.5 327q1 .5 0 1-1-.5 0-1Z"/><path fill="#fff" stroke="#fff" stroke-width=".5" d="M65 56h164.5q1-.4.5 1.5l1 1q-.3 1.7 1 2v2l1 1v1l2 3v2l2 3v2l2 3v2l2 3v2l2 3v2l1 1v1l2 3v2l2 3v2l2 3v2l2 3v2l2 3v2l2 3v2l1 1v1l2 3v2l2 3v2l2 3v2l2 3v2l2 3v2l2 3v2l1 1v1l2 3v2l2 3v2l2 3v2l2 3v2l2 3v2l1 1v1l2 3v2l2 3v3l-2 3v2l-2 3v2l-2 3v2l-2 3v2l-2 3v2l-1 1v1l-2 3v2l-2 3v2l-2 3v2l-2 3v2l-2 3v2l-2 3v2l-1 1v1l-2 3v2l-2 3v2q-1.3.2-1 2l-1 1v2l-2 3v2l-2 3v2l-1 1v1l-2 3v2l-2 3v2l-2 3v2l-2 3v2l-2 3v2l-2 3v2l-1 1v1l-1 1v1l-2 3v2l-2 3v2l-2 3v1.5H65.5q-1 .4-.5-1.5l1-1v-2l2-3v-2l1-1v-1l1-1v-1l2-3v-2l2-3v-2l2-3v-2l2-3v-2l2-3v-2l2-3v-2l1-1v-1l2-3v-2l2-3v-2l2-3v-2l2-3v-2l2-3v-2l1-1v-1l2-3v-2l2-3v-2l2-3v-2l2-3v-2l2-3v-2l2-3v-2l1-1v-1l2-3v-2l2-3v-2l2-3v-2l2-3v-2l2-3v-2l1-1v-1l2-3v-2l-1-1v-2l-2-3v-2l-1-1v-1l-2-3v-2l-2-3v-2l-2-3v-2l-2-3v-2l-2-3v-2l-2-3v-2l-1-1v-1l-2-3v-2l-2-3v-2l-2-3v-2l-2-3v-2l-2-3v-2l-1-1v-1l-2-3v-2l-2-3v-2l-2-3v-2l-2-3v-2l-2-3v-2l-2-3v-2l-1-1v-1l-2-3v-2l-2-3v-2l-2-3v-2l-2-3v-2l-2-3v-2l-2-3v-2l-2-3zM342.5 56h164l.5.5-2 3v2l-2 3v2l-2 3v2l-2 3v2l-2 3v2l-1 1v1l-2 3v2l-2 3v2l-2 3v2l-2 3v2l-2 3v2l-1 1v1l-2 3v2l-2 3v2l-1 1q.2 1.7-1 2v2l-2 3v2l-2 3v2q-1.5.5-1 3l-1 1q.2 1.7-1 2v2l-1 1v1l-2 3v2l-2 3v2l-2 3v2l-2 3v2l-2 3v2l-2 3v2l-1 1v1l-2 3v2l-1 1q.2 1.7-1 2v2l-2 3v3l1 1v2l1 1v1l2 3v2l2 3v2l2 3v2l2 3v2l2 3v2l1 1v1l2 3v2l2 3v2l2 3v2l2 3v2l2 3v2q1.5.5 1 3l1 1q-.3 1.7 1 2v2l1 1v1l2 3v2l2 3v2l2 3v2l2 3v2l2 3v2l2 3v2l1 1v1l2 3v2l2 3v2l2 3v2l1 1v1l2 3v2l2 3v2l1 1v1l2 3v2l1 1-.5.5h-164l-1.5-1.5v-2l-2-3v-2l-1-1v-1l-2-3v-2l-1-1v-1l-2-3v-2l-2-3v-2l-2-3v-2l-2-3v-2l-2-3v-2l-1-1v-1l-2-3v-2l-2-3v-2l-2-3v-2l-2-3v-2l-2-3v-2l-1-1v-1q-1.3-.2-1-2l-1-1v-2l-2-3v-2l-2-3v-2l-2-3v-2l-2-3v-2l-2-3v-2l-1-1v-1l-2-3v-2l-2-3v-2l-2-3v-2l-2-3v-2l-1-1q.2-1.8-1-2v-2l-2-3q.5-2.5-1-3v-3l1-1v-2l2-3v-2l1-1v-1l2-3v-2l2-3v-2l2-3v-2l2-3v-2l2-3v-2l2-3v-2l1-1v-1l2-3v-2l2-3v-2l2-3v-2l2-3v-2l2-3v-2l1-1v-1l2-3v-2l2-3v-2l2-3v-2l2-3v-2l2-3v-2l2-3v-2l1-1v-1l2-3v-2l2-3v-2l2-3v-2l2-3v-2l2-3v-2l2-3v-2q1.3-.2 1-2zM635.5 56h164q1-.4.5 1.5l-1 1q.2 1.7-1 2v2l-1 1v1l-2 3v2l-2 3v2l-2 3v2l-2 3v2l-2 3v2l-2 3v2l-1 1v1l-2 3v2l-2 3v2l-2 3v2l-2 3v2l-2 3v2l-2 3v2l-1 1v1l-2 3v2l-2 3v2l-2 3v2l-2 3v2l-2 3v2l-1 1v1l-2 3v2l-2 3v2l-2 3v2l-2 3v2l-2 3v2l-2 3v2l-1 1v1l-2 3v2l-2 3v2l-2 3v2l-2 3v2l-2 3v2l-2 3v2l-1 1v1l-2 3v2l-2 3v2l-2 3v2l-2 3v2l-2 3v2l-1 1v1l-2 3v2l-2 3v2l-2 3v2l-2 3v2l-2 3v2l-2 3v2l-1 1v1l-2 3v2l-2 3v2l-2 3v2l-2 3v2l-2 3v2l-2 3v2l-1 1v1l-1 1v1l-2 3v2l-1 1q.2 1.7-1 2v2l-2 3v2.5H524.5l-.5-.5 2-3v-2l2-3v-2l1-1v-1l1-1v-1l2-3v-2l2-3v-2l2-3v-2l2-3v-2l2-3v-2l2-3v-2l1-1v-1l2-3v-2l2-3v-2l2-3v-2l2-3v-2l2-3v-2l1-1v-1l2-3v-2l2-3v-2l2-3v-2l2-3v-2l2-3v-2l2-3v-2l1-1v-1l2-3v-2l2-3v-2l2-3v-2l2-3v-2l2-3v-2l2-3v-2l1-1v-1l2-3v-2l2-3v-2l2-3v-2l2-3v-2l2-3v-2l1-1v-1l2-3v-2l2-3v-2l2-3v-2l2-3v-2l2-3v-2l2-3v-2l1-1v-1l2-3v-2l2-3v-2l2-3v-2l2-3v-2l2-3v-2l2-3v-2l1-1v-1l2-3v-2l2-3v-2l2-3v-2l2-3v-2l2-3v-2l1-1v-1l2-3v-2l2-3v-2l2-3v-2zM822.5 56h164l.5.5-1 1v2l-2 3v2l-2 3v2l-2 3v2l-2 3v2l-2 3v2l-1 1v1l-2 3v2l-2 3v2l-2 3v2l-2 3v2l-2 3v2l-1 1v1l-2 3v2l-2 3v2l-2 3v2l-2 3v2l-2 3v2l-2 3v2l-1 1v1l-2 3v2l-2 3v2l-2 3v2l-2 3v2l-2 3v2l-2 3v2l-1 1v1l-2 3v2l-1 1q.2 1.7-1 2v2l-2 3v3l1 1v2l1 1v1l2 3v2l2 3v2l2 3v2l2 3v2l2 3v2l1 1v1l2 3v2l2 3v2l2 3v2l2 3v2l2 3v2l2 3v2l1 1v1l2 3v2l2 3v2l2 3v2l2 3v2l2 3v2l2 3v2l1 1v1l2 3v2l2 3v2l2 3v2l1 1q-.3 1.7 1 2v2l1 1v1l2 3v2l1 1v1l2 3v2l2 3v1.5H822.5l-1.5-1.5v-2l-1-1q.2-1.8-1-2v-2l-1-1v-1l-2-3v-2l-1-1v-1l-2-3v-2l-2-3v-2l-2-3v-2l-2-3v-2l-2-3v-2l-1-1v-1l-2-3v-2l-2-3v-2l-2-3v-2l-2-3v-2l-2-3v-2l-1-1v-1q-1.3-.2-1-2l-1-1v-2l-2-3v-2l-2-3v-2l-2-3v-2l-2-3v-2l-2-3v-2l-1-1v-1l-2-3v-2l-2-3v-2l-2-3v-2l-2-3v-2l-2-3v-2l-1-1v-1l-2-3v-4l1-1v-2l2-3v-2l1-1v-1l2-3v-2l2-3v-2l2-3v-2l2-3v-2l2-3v-2l2-3v-2l1-1v-1l2-3v-2l2-3v-2l2-3v-2l2-3v-2l2-3v-2l1-1v-1l2-3v-2l2-3v-2l2-3v-2l2-3v-2l2-3v-2l2-3v-2l1-1v-1l2-3v-2l2-3v-2l2-3v-2l2-3v-2l2-3v-2l2-3v-2q1.2-.2 1-2zM1013 56h164.5q1-.4.5 1.5l2 3v2l2 3v2l2 3v2l2 3v2l1 1v1l2 3v2l2 3v2l2 3v2l2 3v2l2 3v2l2 3v2l1 1v1l2 3v2l2 3v2l2 3v2q1.3.2 1 2l1 1v2l2 3v2l2 3v2l1 1v1l2 3v2l2 3v2l2 3v2l2 3v2l2 3v2l1 1v1l2 3v2l2 3v2l1 1q-.3 1.7 1 2v2l2 3v2q1.5.5 1 3l-1 1q.2 1.7-1 2v2l-1 1v1l-2 3v2l-2 3v2l-2 3v2l-2 3v2l-2 3v2l-2 3v2l-1 1v1l-2 3v2l-2 3v2l-2 3v2l-2 3v2l-2 3v2l-1 1v1l-2 3v2l-2 3v2l-2 3v2l-2 3v2l-2 3v2l-2 3v2l-1 1v1l-2 3v2l-2 3v2l-2 3v2l-1 1q.2 1.7-1 2v2l-1 1v1l-2 3v2l-2 3v2l-2 3v1.5h-164.5q-1 .4-.5-1.5l1-1v-2l2-3v-2l2-3v-2l1-1v-1l2-3v-2l2-3v-2l2-3v-2l1-1v-1l2-3v-2l2-3v-2l2-3v-2l2-3v-2l2-3v-2l1-1v-1l2-3v-2l2-3v-2l2-3v-2l2-3v-2l2-3v-2l2-3v-2l1-1v-1l2-3v-2l2-3v-2l2-3v-2l2-3v-2l2-3v-2l1-1q-.3-1.8 1-2v-2l1-1v-1l2-3v-2l2-3v-2q1.3-.2 1-2l-2-3v-2l-2-3v-2l-2-3v-2l-2-3v-2l-1-1v-1l-2-3v-2l-2-3v-2l-2-3v-2l-2-3v-2l-2-3v-2l-2-3v-2l-1-1v-1l-2-3v-2l-2-3v-2l-2-3v-2l-2-3v-2l-2-3v-2l-1-1v-1l-2-3v-2l-2-3v-2l-2-3v-2l-2-3v-2l-2-3v-2l-2-3v-2l-1-1v-1l-2-3v-2l-2-3v-2l-2-3v-2l-2-3v-2l-1-1zM1290.5 56h164l.5.5-1 1v2l-2 3v2l-1 1v1l-2 3v2l-2 3v2l-2 3v2l-2 3v2l-2 3v2l-2 3v2l-1 1v1l-2 3v2l-2 3v2l-2 3v2l-2 3v2l-2 3v2l-1 1v1l-2 3v2l-2 3v2l-2 3v2l-2 3v2l-2 3v2l-2 3v2l-1 1v1l-2 3v2l-2 3v2l-2 3v2l-2 3v2l-2 3v2l-1 1q.2 1.7-1 2v2l-2 3v3l1 1v2l2 3v2l2 3v2l2 3v2l1 1v1l2 3v2l2 3v2l2 3v2l2 3v2l2 3v2l2 3v2l1 1v1l2 3v2l2 3v2l2 3v2l2 3v2l2 3v2l2 3v2l1 1v1l2 3v2l2 3v2l2 3v2l2 3v2l2 3v2l1 1v1l2 3v2l1 1v1l2 3v2l2 3v2l1 1q-.3 1.7 1 2v2l1 1-.5.5h-164l-1.5-1.5q.2-1.8-1-2v-2l-2-3v-2l-2-3v-2l-1-1v-1l-2-3v-2l-1-1v-1l-2-3v-2l-2-3v-2l-2-3v-2l-2-3v-2l-2-3v-2l-2-3v-2l-1-1v-1l-2-3v-2l-2-3v-2l-2-3v-2q-1.2-.2-1-2l-1-1v-2l-2-3v-2l-1-1v-1l-2-3v-2l-2-3v-2l-2-3v-2l-2-3v-2l-2-3v-2l-2-3v-2l-1-1v-1l-2-3v-2l-2-3v-2l-1-1q.2-1.8-1-2v-2l-2-3v-4l1-1v-2l2-3v-2l2-3v-2l2-3v-2l2-3v-2l2-3v-2l1-1v-1l2-3v-2l2-3v-2l2-3v-2l2-3v-2l2-3v-2l1-1v-1l2-3v-2l2-3v-2l2-3v-2l2-3v-2l2-3v-2l2-3v-2l1-1v-1l2-3v-2l2-3v-2l2-3v-2l2-3v-2l2-3v-2l2-3v-2l1-1v-1l2-3v-2l2-3v-2q1.3-.2 1-2z"/></svg>